<svg width="1576" height="279" viewBox="0 0 1576 279" fill="none" xmlns="http://www.w3.org/2000/svg">
<path d="M14.6506 242.065L101.314 216.523L106.272 150.588L39.3616 154.679L14.6506 242.065Z" fill="#3234F6"/>
<path d="M222.049 33.8936C176.706 -11.3745 103.16 -11.2874 57.9291 34.0928L0 92.3312L44.5133 136.771L64.0288 68.9686C133.091 64.6348 190.309 121.759 185.968 190.707L118.247 210.832L163.49 256L222.049 197.537C267.317 152.35 267.317 79.0808 222.049 33.8874V33.8936Z" fill="#3234F6"/>
<path d="M447 15H480V162H447V142.5C447 136.7 445.9 131.4 443.7 126.6C441.7 121.6 438.9 117.3 435.3 113.7C431.7 110.1 427.4 107.3 422.4 105.3C417.6 103.1 412.3 102 406.5 102C400.9 102 395.6 103.1 390.6 105.3C385.8 107.3 381.5 110.1 377.7 113.7C374.1 117.3 371.2 121.6 369 126.6C367 131.4 366 136.7 366 142.5C366 148.1 367 153.4 369 158.4C371.2 163.4 374.1 167.7 377.7 171.3C381.5 174.9 385.8 177.8 390.6 180C395.6 182 400.9 183 406.5 183H480V216H406.5C396.3 216 386.7 214.1 377.7 210.3C368.7 206.5 360.9 201.3 354.3 194.7C347.7 188.1 342.5 180.4 338.7 171.6C334.9 162.6 333 152.9 333 142.5C333 132.3 334.8 122.7 338.4 113.7C342.2 104.7 347.2 96.9 353.4 90.3C359.8 83.7 367.3 78.5 375.9 74.7C384.7 70.9 394 69 403.8 69C412.2 69 420 70.3 427.2 72.9C434.4 75.5 441 79.1 447 83.7V15ZM577.594 187.5C587.794 187.5 595.994 184.4 602.194 178.2C608.594 172 611.794 163.8 611.794 153.6V72H644.794V152.4C644.794 162.6 643.194 171.8 639.994 180C636.794 188.2 632.294 195.2 626.494 201C620.694 206.8 613.594 211.3 605.194 214.5C596.994 217.5 587.794 219 577.594 219C567.394 219 558.094 217.5 549.694 214.5C541.494 211.3 534.394 206.8 528.394 201C522.594 195.2 518.094 188.2 514.894 180C511.694 171.8 510.094 162.6 510.094 152.4V72H543.094V153.6C543.094 163.8 546.294 172 552.694 178.2C559.094 184.4 567.394 187.5 577.594 187.5ZM668.742 144C668.742 133.4 670.642 123.6 674.442 114.6C678.442 105.4 683.742 97.4 690.342 90.6C697.142 83.8 705.142 78.5 714.342 74.7C723.542 70.9 733.342 69 743.742 69C754.342 69 764.142 70.9 773.142 74.7C782.342 78.5 790.342 83.8 797.142 90.6C803.942 97.4 809.242 105.4 813.042 114.6C816.842 123.6 818.742 133.4 818.742 144C818.742 154.4 816.842 164.2 813.042 173.4C809.242 182.6 803.942 190.6 797.142 197.4C790.342 204 782.342 209.3 773.142 213.3C764.142 217.1 754.342 219 743.742 219C733.342 219 723.542 217.1 714.342 213.3C705.142 209.3 697.142 204 690.342 197.4C683.742 190.6 678.442 182.6 674.442 173.4C670.642 164.2 668.742 154.4 668.742 144ZM701.742 144C701.742 150 702.842 155.6 705.042 160.8C707.242 165.8 710.142 170.2 713.742 174C717.542 177.6 721.942 180.5 726.942 182.7C732.142 184.9 737.742 186 743.742 186C749.742 186 755.242 184.9 760.242 182.7C765.442 180.5 769.942 177.6 773.742 174C777.542 170.2 780.442 165.8 782.442 160.8C784.642 155.6 785.742 150 785.742 144C785.742 138 784.642 132.5 782.442 127.5C780.442 122.3 777.542 117.8 773.742 114C769.942 110.2 765.442 107.3 760.242 105.3C755.242 103.1 749.742 102 743.742 102C737.742 102 732.142 103.1 726.942 105.3C721.942 107.3 717.542 110.2 713.742 114C710.142 117.8 707.242 122.3 705.042 127.5C702.842 132.5 701.742 138 701.742 144ZM875.613 15V216H842.613V15H875.613ZM899.602 144C899.602 133.4 901.502 123.6 905.302 114.6C909.302 105.4 914.602 97.4 921.202 90.6C928.002 83.8 936.002 78.5 945.202 74.7C954.402 70.9 964.202 69 974.602 69C985.202 69 995.002 70.9 1004 74.7C1013.2 78.5 1021.2 83.8 1028 90.6C1034.8 97.4 1040.1 105.4 1043.9 114.6C1047.7 123.6 1049.6 133.4 1049.6 144C1049.6 154.4 1047.7 164.2 1043.9 173.4C1040.1 182.6 1034.8 190.6 1028 197.4C1021.2 204 1013.2 209.3 1004 213.3C995.002 217.1 985.202 219 974.602 219C964.202 219 954.402 217.1 945.202 213.3C936.002 209.3 928.002 204 921.202 197.4C914.602 190.6 909.302 182.6 905.302 173.4C901.502 164.2 899.602 154.4 899.602 144ZM932.602 144C932.602 150 933.702 155.6 935.902 160.8C938.102 165.8 941.002 170.2 944.602 174C948.402 177.6 952.802 180.5 957.802 182.7C963.002 184.9 968.602 186 974.602 186C980.602 186 986.102 184.9 991.102 182.7C996.302 180.5 1000.8 177.6 1004.6 174C1008.4 170.2 1011.3 165.8 1013.3 160.8C1015.5 155.6 1016.6 150 1016.6 144C1016.6 138 1015.5 132.5 1013.3 127.5C1011.3 122.3 1008.4 117.8 1004.6 114C1000.8 110.2 996.302 107.3 991.102 105.3C986.102 103.1 980.602 102 974.602 102C968.602 102 963.002 103.1 957.802 105.3C952.802 107.3 948.402 110.2 944.602 114C941.002 117.8 938.102 122.3 935.902 127.5C933.702 132.5 932.602 138 932.602 144ZM1181.47 145.5V126H1214.47V205.5C1214.47 215.7 1212.57 225.3 1208.77 234.3C1204.97 243.3 1199.77 251.1 1193.17 257.7C1186.57 264.3 1178.77 269.5 1169.77 273.3C1160.97 277.1 1151.37 279 1140.97 279C1132.17 279 1123.77 277.6 1115.77 274.8C1107.97 272 1100.87 268 1094.47 262.8C1088.27 257.8 1082.97 251.8 1078.57 244.8C1074.17 237.8 1071.07 230.2 1069.27 222H1104.07C1107.27 229.2 1112.07 235 1118.47 239.4C1125.07 243.8 1132.57 246 1140.97 246C1146.57 246 1151.77 245 1156.57 243C1161.57 241 1165.87 238.3 1169.47 234.9C1173.07 231.5 1175.87 227.4 1177.87 222.6C1180.07 217.8 1181.27 212.7 1181.47 207.3C1169.67 215.1 1156.17 219 1140.97 219C1130.77 219 1121.17 217.1 1112.17 213.3C1103.17 209.5 1095.37 204.3 1088.77 197.7C1082.17 191.1 1076.97 183.3 1073.17 174.3C1069.37 165.3 1067.47 155.7 1067.47 145.5C1067.47 135.1 1069.37 125.5 1073.17 116.7C1076.97 107.7 1082.17 99.9 1088.77 93.3C1095.37 86.7 1103.17 81.5 1112.17 77.7C1121.17 73.9 1130.77 72 1140.97 72H1214.47V105H1140.97C1135.37 105 1130.07 106.1 1125.07 108.3C1120.27 110.3 1115.97 113.1 1112.17 116.7C1108.57 120.3 1105.67 124.6 1103.47 129.6C1101.47 134.4 1100.47 139.7 1100.47 145.5C1100.47 151.1 1101.47 156.4 1103.47 161.4C1105.67 166.4 1108.57 170.7 1112.17 174.3C1115.97 177.9 1120.27 180.8 1125.07 183C1130.07 185 1135.37 186 1140.97 186C1146.77 186 1152.07 185 1156.87 183C1161.87 180.8 1166.17 177.9 1169.77 174.3C1173.37 170.7 1176.17 166.4 1178.17 161.4C1180.37 156.4 1181.47 151.1 1181.47 145.5ZM1312.07 187.5C1322.27 187.5 1330.47 184.4 1336.67 178.2C1343.07 172 1346.27 163.8 1346.27 153.6V72H1379.27V152.4C1379.27 162.6 1377.67 171.8 1374.47 180C1371.27 188.2 1366.77 195.2 1360.97 201C1355.17 206.8 1348.07 211.3 1339.67 214.5C1331.47 217.5 1322.27 219 1312.07 219C1301.87 219 1292.57 217.5 1284.17 214.5C1275.97 211.3 1268.87 206.8 1262.87 201C1257.07 195.2 1252.57 188.2 1249.37 180C1246.17 171.8 1244.57 162.6 1244.57 152.4V72H1277.57V153.6C1277.57 163.8 1280.77 172 1287.17 178.2C1293.57 184.4 1301.87 187.5 1312.07 187.5ZM1403.21 144C1403.21 133.2 1405.01 123.2 1408.61 114C1412.41 104.8 1417.61 96.9 1424.21 90.3C1430.81 83.5 1438.61 78.3 1447.61 74.7C1456.81 70.9 1466.81 69 1477.61 69C1488.41 69 1498.31 70.9 1507.31 74.7C1516.51 78.3 1524.41 83.5 1531.01 90.3C1537.61 96.9 1542.71 104.8 1546.31 114C1550.11 123.2 1552.01 133.2 1552.01 144C1552.01 145.4 1551.91 146.8 1551.71 148.2C1551.71 149.4 1551.51 151 1551.11 153H1436.81C1438.61 163.2 1443.01 171.3 1450.01 177.3C1457.21 183.1 1466.41 186 1477.61 186C1485.21 186 1491.91 184.6 1497.71 181.8C1503.71 179 1508.51 174.9 1512.11 169.5H1548.11C1545.71 177.1 1542.31 184 1537.91 190.2C1533.51 196.2 1528.21 201.4 1522.01 205.8C1516.01 210 1509.21 213.3 1501.61 215.7C1494.21 217.9 1486.21 219 1477.61 219C1466.81 219 1456.81 217.2 1447.61 213.6C1438.61 209.8 1430.81 204.6 1424.21 198C1417.61 191.4 1412.41 183.5 1408.61 174.3C1405.01 165.1 1403.21 155 1403.21 144ZM1516.91 129C1514.11 120.6 1509.31 114 1502.51 109.2C1495.71 104.4 1487.41 102 1477.61 102C1467.61 102 1459.21 104.4 1452.41 109.2C1445.61 114 1440.91 120.6 1438.31 129H1516.91Z" fill="black"/>
</svg>
