<?xml version="1.0" encoding="UTF-8"?>
<svg xmlns="http://www.w3.org/2000/svg" id="a" width="112" height="112" viewBox="0 0 112 112">
  <defs>
    <style>.b{fill:#f69ea8;}.c{fill:#231f20;}</style>
  </defs>
  <path class="b" d="m13.7564,44.49687c-.90908,1.30978-4.94022,4.96815-8.49712,4.33573-.71118-.13547-1.14603-.54188-1.38298-1.08393-.90908.81299-1.81816,1.44524-2.41087,1.58072-1.14603.27111-1.62026-.40641-.79027-.63225,1.02722-.27094,1.9363-.94846,2.96386-1.98713-.11847-.63242.11847-1.58072.47423-2.48407,1.02756-2.57428,3.00358-4.24536,4.26841-4.65194.86937-.27094,1.65964-.18057,1.38332,1.30978-.35576,1.80656-2.33178,3.61311-3.95238,5.19382-.31604.22584-.79027.63242-1.14603,1.03883.11847.40641.23729.49678.5927.63225,2.9642.81299,7.03505-2.48391,7.8647-3.61311.43485-.63225,1.06727-.27094.63242.36131h0Zm-9.24801,1.49051c1.10665-.90336,4.62417-4.381,4.42661-5.41966-.11881-.58715-2.60844,1.3096-3.75447,3.47747-.35576.67752-.55333,1.26467-.67214,1.94219Z"></path>
  <path class="b" d="m29.60461,45.5808s3.00358-3.79368,4.2287-4.24536c.71118-.27094,1.06694.22584.98784.76772-.11848.76789-1.30422,4.56157-.90875,4.33573.75089-.27094,4.34718-4.56157,4.9005-5.05836.55333-.67735,1.81783-.67735,1.22512.63242-.63242,1.3096-.86937,2.52918-.90908,4.06462-.07909,2.25823,3.87328-.85809,4.66356-1.89675.82999-.90336,1.10665-.45168.39514.49678-.94846,1.26451-3.20114,3.11633-4.66356,3.11633-.51361,0-.90875-.22584-1.14603-.76789-.59271-1.39997.35576-4.33573.35576-4.33573,0,0-3.83357,4.33573-4.62384,4.87778-.39547.36131-1.46241.40641-1.46241-.49678.07909-1.03883,1.38332-4.29063.82999-4.15516-.82999.22584-3.95204,3.92932-4.66356,4.96798-.43485.63242-1.30422.40658-1.02756-.40641.11848-.49678.79061-1.76145,1.38332-3.16143-1.26484,1.49035-2.80601,2.57428-3.51752,2.75502-.39514.18057-.82999.31604-1.22512.31604-.5927,0-1.10665-.31604-1.18541-1.35487-.23728-1.44524.5927-3.52274.5927-3.52274,0,0-2.84539,3.65821-4.03113,4.69704-.43485.40641-.86937.54188-1.18574.54188-.55333,0-.82999-.45151-.79027-1.2194.03938-1.39997.35576-3.34217-.03972-3.47764-.31604-.13547-3.08267,2.34861-5.37473,4.74231-.82999.90319-1.26484-.22584-.75089-1.1292.51361-1.08393,2.33178-3.97442,2.72691-5.01309.19757-.54205.82999-.27111.82999.40641-.15819.99356-1.77845,3.2518-1.89692,3.43237.07909-.0902,3.20114-2.89049,4.2287-3.70331.94846-.90336,1.65998-.27094,1.54117.54188-.19757,1.1743-.47423,3.97442-.19757,4.10989.75089.18074,3.00358-3.11633,4.26842-4.4712.98784-1.12903,2.25268-1.30978,1.85754,0-.51395,1.58072-1.73907,4.20026-.23729,4.33573,1.10665.13547,4.3078-2.34844,5.17716-4.20026l.11881-.67735c.07876-1.1743,1.30388-1.1743,1.14603-.36131,0,.90319-1.62026,4.5163-1.62026,4.5163Z"></path>
  <path class="b" d="m48.17839,42.37427c-.55333.0902-3.71509,2.1226-4.74265,3.56784-.35542.49678-.51361.90336-.51361,1.1743,0,.45168.43485.49678,1.46241-.0451,2.33177-1.26467,5.05869-4.60684,5.65139-5.78097.19757-.49678,1.58088-.36131.79027.94846-.27666.54188-.55333,1.35487-.55333,2.1226,0,1.12903.51395,2.21313,2.13421,2.43881,3.04329.45168,5.80958-1.39997,5.69112-2.70975s.5927-1.71618.5927.13547c0,2.16787-2.88477,3.65821-5.37474,3.65821-.55333,0-1.06694-.0902-1.54117-.22584-2.92482-.9483-2.48997-3.74858-2.48997-3.74858,0,0-2.76663,3.65838-5.45383,4.51647-1.38332.45168-1.89726-.36131-1.81817-1.08393.07909-.81299.55333-1.94202,1.77845-3.47764,1.6206-2.03239,3.47781-2.93559,4.14994-2.93559.71118.13547.71118,1.17413.23695,1.44524h0Z"></path>
  <path class="c" d="m0,67.55177h2.71749v-16.745H0v-.3428h5.50835l4.52892,13.17094h.04914l4.52892-13.17094h5.41007v.3428h-2.71749v16.745h2.71749v.3428h-7.88253v-.3428h2.71681v-16.59809h-.04847l-5.85098,16.96529-5.82674-16.79397h-.04914v16.42677h2.71749v.3428H0v-.3428Z"></path>
  <path class="c" d="m29.33912,65.20165c-.04914.17973-.14338.43687-.28137.77109-.13867.33472-.35946.66945-.66103,1.00383-.30224.33472-.71017.62838-1.22445.88131-.51361.25277-1.17935.37949-1.9952.37949-.61997,0-1.26484-.09794-1.93395-.29383s-1.281-.50991-1.83567-.94257c-.55534-.43216-1.00837-.99945-1.35908-1.70137-.35071-.70159-.5264-1.56675-.5264-2.59498,0-.79953.15079-1.54234.45303-2.22777.30157-.6856.71017-1.28116,1.22445-1.7872.51361-.5057,1.11742-.90151,1.81144-1.18726.69334-.28542,1.43178-.42846,2.21532-.42846.44091,0,.89394.05318,1.35908.15903.46515.10636.88922.26942,1.27292.48971.38302.22029.70142.50604.95452.85675.2531.35121.37965.77967.37965,1.28537,0,.34263-.1104.62418-.33052.84463-.22012.22029-.53515.33052-.9424.33052-.27801,0-.54323-.06126-.79566-.18377-.25377-.12234-.37965-.33035-.37965-.62418,0-.22836.05722-.5057.17165-.83234.11376-.32631.17098-.59556.17098-.80794,0-.37528-.18781-.66473-.56275-.86903-.37562-.20397-.80777-.30611-1.29783-.30611-.35879,0-.73036.04527-1.11406.1348-.38369.08987-.7344.31436-1.05213.67315-.3184.35912-.57958.89781-.78354,1.61572-.20464.71842-.30628,1.69767-.30628,2.93778,0,.70192.0451,1.36295.13463,1.98292.08953.62047.2531,1.16286.49005,1.628.23627.46515.56275.83234.97876,1.10177.41668.26926.95856.40389,1.62834.40389.71758,0,1.30927-.10602,1.77441-.31823.46515-.21187.83268-.46901,1.10194-.77126.26926-.30174.46918-.60768.59977-.918.13059-.30981.2282-.56308.29349-.7588l.36754.07337h0Z"></path>
  <path class="c" d="m46.78295,72.546c-1.42034-.01649-2.55055-.07354-3.39063-.17132-.84076-.09794-1.51795-.25327-2.03223-.46515-.51361-.21238-.93837-.49813-1.27292-.85692-.33455-.35912-.70613-.81636-1.11405-1.37086-.35879-.47356-.74248-.86112-1.15041-1.16286-.40792-.30224-.78354-.502-1.12617-.59994-.93029-.24469-1.77913-.65245-2.54584-1.22395-.76739-.57117-1.42842-1.24851-1.98309-2.03189-.55534-.78354-.98347-1.64836-1.28503-2.59514-.30224-.94627-.45303-1.91746-.45303-2.91321,0-1.27309.24839-2.46422.74652-3.57423.49746-1.10968,1.15041-2.07666,1.95818-2.90109.80844-.82393,1.71787-1.47268,2.73028-1.94623,1.01174-.47305,2.03963-.70983,3.08436-.70983,1.07703,0,2.1258.23257,3.14561.69772,1.01982.46514,1.92991,1.10581,2.7296,1.92166.7997.81636,1.44053,1.77913,1.92183,2.8888.4813,1.11002.72228,2.31764.72228,3.62321,0,1.14266-.22012,2.26076-.66103,3.35395-.44024,1.09352-1.04472,2.06488-1.81143,2.91321-.76739.84884-1.66873,1.53427-2.70537,2.05646s-2.15002.78338-3.34149.78338c-.31032,0-.62064-.0244-.93029-.07337l-.02423.07337c.24436.13043.47726.25294.69738.3672.22012.1141.4611.21608.72228.30611.26118.08936.55063.16711.86903.23257.3184.06496.69805.12234,1.13829.17132.47322.04897.91817.22029,1.33417.51412s.78758.62805,1.11405,1.00366c.21204.24486.40389.45303.57554.62434.17098.17132.35879.30981.56275.41617.20396.10585.44428.1836.72228.23257.27734.04897.62805.07337,1.0528.07337v.3428h.00002Zm-13.5383-13.39122c0,1.4688.09828,2.75031.29416,3.8435.19588,1.09369.52169,2.00749.97876,2.74189.45707.73457,1.04472,1.2815,1.76297,1.64029.71758.35912,1.60747.53852,2.66835.53852,1.04405,0,1.92991-.17939,2.65623-.53852.72565-.35879,1.31802-.90572,1.77508-1.64029.45639-.7344.78287-1.6482.97876-2.74189.19588-1.09319.29416-2.37469.29416-3.8435,0-1.12617-.07337-2.21549-.22079-3.26829-.14675-1.05263-.42812-1.991-.84413-2.81526-.41668-.82393-.99558-1.48109-1.73806-1.9708-.74316-.48954-1.70979-.7344-2.90126-.7344s-2.15878.24486-2.90126.7344c-.74248.48971-1.32206,1.14687-1.73806,1.9708-.416.82427-.69738,1.76263-.8448,2.81526-.14675,1.0528-.22012,2.14212-.22012,3.26829h0Z"></path>
  <path class="c" d="m47.81085,50.46396h7.88321v.3428h-2.71749v11.82431c0,.97926.08549,1.8079.25714,2.48492.17098.67735.42812,1.22395.77075,1.64012.34263.41634.76739.71421,1.27292.8936.50621.1799,1.08511.26926,1.73806.26926.91413,0,1.72191-.13463,2.424-.40389.70142-.26926,1.30523-.74669,1.81144-1.43212.1629-.21187.30628-.42425.42879-.63646.12184-.21204.2282-.46094.31773-.74669.08952-.28542.15953-.62821.20867-1.02823.04846-.39968.07337-.8936.07337-1.48109v-11.38374h-2.71749v-.3428h5.80184v.3428h-2.71749v11.87328c0,.68543-.07337,1.30978-.22012,1.87286s-.44899,1.1467-.90605,1.75035c-.44023.58765-1.0528,1.06121-1.83567,1.42-.78354.35879-1.82019.53852-3.10926.53852-1.95885,0-3.45593-.48113-4.49257-1.4444-1.03665-.96276-1.55429-2.43965-1.55429-4.43098v-11.57962h-2.71749v-.3428h-.00002Z"></path>
  <path class="c" d="m64.77614,67.55177h2.71749v-16.745h-2.71749v-.3428h14.00278v4.23526h-.26926c-.21204-.63646-.44023-1.19534-.68526-1.67698-.24503-.48113-.53852-.88939-.88115-1.22412-.34263-.33422-.75123-.58328-1.22445-.74669-.47322-.1629-1.04405-.24469-1.71316-.24469h-4.06378v7.56464h1.59064c.53919,0,.99558-.04897,1.3712-.14691s.69805-.28154.96731-.5508.49746-.63646.68526-1.1016c.18713-.46514.3709-1.06492.55063-1.79949h.26926v7.61378h-.26926c-.11444-.47322-.23224-.93029-.35475-1.37103-.12251-.44057-.29416-.83235-.51428-1.17514-.22012-.34263-.51428-.61576-.88115-.82006-.36754-.20397-.8448-.30595-1.43245-.30595h-1.98242v8.83756h4.62653c.8973,0,1.64382-.19151,2.24023-.5752.59573-.38335,1.08107-.84042,1.45669-1.37103.37494-.5301.65228-1.0809.83201-1.65241.17973-.57117.29416-1.04439.34263-1.42h.26926v5.36143h-14.93307v-.3428h-.00002Z"></path>
  <path class="c" d="m80.17434,67.55177h2.71749v-16.745h-2.71749v-.3428h14.00345v4.23526h-.26926c-.21204-.63646-.44091-1.19534-.68526-1.67698-.24503-.48113-.53852-.88939-.88182-1.22412-.34263-.33422-.75056-.58328-1.22378-.74669-.47389-.1629-1.04472-.24469-1.71383-.24469h-4.06378v7.56464h1.59132c.53852,0,.99558-.04897,1.3712-.14691.37494-.09794.69738-.28154.96663-.5508s.49746-.63646.68526-1.1016.37158-1.06492.55131-1.79949h.26926v7.61378h-.26926c-.11444-.47322-.23291-.93029-.35542-1.37103-.12184-.44057-.29349-.83235-.51361-1.17514-.22079-.34263-.51428-.61576-.88182-.82006-.36687-.20397-.84413-.30595-1.43178-.30595h-1.98309v8.83756h4.6272c.8973,0,1.64382-.19151,2.23956-.5752.59573-.38335,1.08107-.84042,1.45669-1.37103.37562-.5301.65295-1.0809.83268-1.65241.17906-.57117.29349-1.04439.34263-1.42h.26926v5.36143h-14.93374v-.3428h-.00001Z"></path>
  <path class="c" d="m95.35243,67.55177h2.71749v-16.745h-2.71749v-.3428h5.2391l8.27498,13.34225h.04914v-12.99945h-2.71749v-.3428h5.80184v.3428h-2.7175v17.43061h-.48937l-10.30653-16.42694h-.04914v15.74135h2.71749v.3428h-5.80251v-.3428h0Z"></path>
</svg>
