<?xml version="1.0" encoding="utf-8"?>
<!-- Generator: Adobe Illustrator 25.0.1, SVG Export Plug-In . SVG Version: 6.00 Build 0)  -->
<svg version="1.1" id="Capa_1" xmlns="http://www.w3.org/2000/svg" xmlns:xlink="http://www.w3.org/1999/xlink" x="0px" y="0px"
	 viewBox="0 0 51.2047043 48.4897003" style="enable-background:new 0 0 51.2047043 48.4897003;" xml:space="preserve">
<style type="text/css">
	.st0{enable-background:new    ;}
	.st1{fill:#053673;}
	.st2{fill:#9E0A0F;}
	.st3{fill:#D1A10D;}
</style>
<g>
	<g class="st0">
		<g>
			<g>
				<path class="st1" d="M14.2866526,0.0637018v22.4609985l0.0169983,0.0070038
					c0.1709976,3.3909912,4.1299963,5.2429962,7.5989981,5.4789886c1.1570053,0.07901,2.451004,0.128006,2.8880005,0.3460083
					c0.6679993,0.3309937,0.8120041,1.4339981,0.8120041,1.4339981l0.0059967-0.0250015v0.0250015
					c0,0,0.1450043-1.1030045,0.8120041-1.4339981c0.4379959-0.2180023,1.7319946-0.2669983,2.8879929-0.3460083
					c3.5419998-0.2409973,7.5970001-2.1649933,7.6090012-5.6920013V0.0637018H14.2866526z"/>
				<polygon class="st1" points="0.0589531,48.2633018 0.0589531,39.1253014 1.3519524,39.1253014 1.3519524,47.0872993 
					5.701951,47.0872993 5.701951,48.2633018 				"/>
				<path class="st1" d="M9.5238504,47.0346947v-1.7709961c-0.810997,0.2539978-1.3679962,0.4860001-1.6749954,0.6999969
					c-0.3080063,0.215004-0.4610062,0.4620056-0.4610062,0.7450027c0,0.2480011,0.0790024,0.439003,0.2380066,0.5749969
					c0.159996,0.1340027,0.3819962,0.2030029,0.6689987,0.2030029c0.2129974,0,0.4219971-0.0390015,0.6279984-0.1149979
					C9.1268549,47.2956963,9.3278513,47.1826973,9.5238504,47.0346947 M9.5688486,47.7666969
					c-0.3039932,0.2129974-0.5929947,0.3670044-0.8649979,0.4609985c-0.2730026,0.0930023-0.5650024,0.1399994-0.8789978,0.1399994
					c-0.5390015,0-0.961998-0.1299973-1.2659988-0.3889999c-0.3059998-0.2589951-0.4580002-0.6139984-0.4580002-1.0690002
					c0-0.4259949,0.1660004-0.7999954,0.496994-1.121994c0.3310013-0.3220062,0.8290024-0.5940018,1.4950027-0.8160019
					l1.4309998-0.4769974c0.0029984-0.0360031,0.0070038-0.0699997,0.0100021-0.1050034
					c0.0019989-0.0350037,0.0029984-0.0849991,0.0029984-0.1490021c0-0.3619995-0.0889969-0.6230011-0.2649994-0.7809982
					c-0.1760025-0.1589966-0.4670029-0.2389984-0.8710022-0.2389984c-0.3359985,0-0.6819992,0.0709991-1.0400009,0.211998
					c-0.3569946,0.1419983-0.7139969,0.3509979-1.0699997,0.6310043v-1.189003
					c0.3090057-0.2529984,0.6550064-0.4440002,1.038002-0.5719986c0.3830032-0.1290054,0.7900009-0.1930008,1.2220001-0.1930008
					c0.7740021,0,1.3379974,0.1719971,1.6900024,0.5130005c0.3539963,0.3419952,0.5309982,0.8949966,0.5309982,1.6559982v2.5540009
					c0,0.2139969,0.0189972,0.3639984,0.0550003,0.4540024c0.0360031,0.0889969,0.098999,0.1339951,0.185997,0.1339951
					c0.0740051,0,0.151001-0.0199966,0.2320023-0.0589981s0.211998-0.1299973,0.3950043-0.2740021v0.7320023
					c-0.2180023,0.185997-0.4370041,0.3249969-0.6600037,0.4140015c-0.2220001,0.0889969-0.4520035,0.1339951-0.6920013,0.1339951
					c-0.2309952,0-0.4029999-0.0479965-0.5189972-0.1429977C9.6538553,48.127697,9.586854,47.9756966,9.5688486,47.7666969"/>
				<path class="st1" d="M14.4647532,47.5509987v-1.723999c0.413002,0.4749985,0.8089981,0.8160019,1.185997,1.0250015
					c0.3759985,0.2089996,0.7779989,0.3139954,1.2050009,0.3139954c0.4520035,0,0.8089981-0.1059952,1.0699997-0.3180008
					c0.2610016-0.2099991,0.3919983-0.496994,0.3919983-0.8579941c0-0.2950058-0.0879974-0.5560074-0.2639999-0.7810059
					c-0.177002-0.223999-0.5979996-0.5469971-1.2639999-0.9679947c-1.0329962-0.6679993-1.6789999-1.1840057-1.9439993-1.5500031
					c-0.2630005-0.3649979-0.3939972-0.8000031-0.3939972-1.3059998c0-0.7099991,0.2509995-1.2919998,0.7539978-1.7470016
					s1.1500006-0.6819992,1.9420004-0.6819992c0.3529968,0,0.7009964,0.0510025,1.0429993,0.1529999
					c0.3410034,0.1019974,0.685997,0.2600021,1.0360031,0.4729996v1.4830017
					c-0.401001-0.322998-0.7720032-0.5569992-1.1119995-0.7020035c-0.3390045-0.1459961-0.6790009-0.2189941-1.0180054-0.2189941
					c-0.409996,0-0.7429962,0.1009979-1.0029984,0.3040009c-0.2600012,0.2019958-0.3879995,0.4629974-0.3879995,0.7809982
					c0,0.4529953,0.5370016,1.0149994,1.612998,1.6849976c0.0870056,0.052002,0.1520004,0.0920029,0.1959991,0.1169968
					c0.8740005,0.5440063,1.4470062,1.0240021,1.7180023,1.4400024c0.2689972,0.4160004,0.4039993,0.9309998,0.4039993,1.5439987
					c0,0.6980057-0.2519989,1.2740021-0.7569962,1.7290039c-0.5060043,0.4540024-1.1520004,0.6819992-1.939003,0.6819992
					c-0.4929962,0-0.9369965-0.0699997-1.3329992-0.2080002C15.2107553,48.0779991,14.8307505,47.8549995,14.4647532,47.5509987"/>
				<path class="st1" d="M23.8501511,47.0346947v-1.7709961c-0.8089981,0.2539978-1.3690033,0.4860001-1.6740036,0.6999969
					c-0.3079987,0.215004-0.461998,0.4620056-0.461998,0.7450027c0,0.2480011,0.0800018,0.439003,0.2389984,0.5749969
					c0.1580048,0.1340027,0.3820038,0.2030029,0.6690063,0.2030029c0.2129974,0,0.4219971-0.0390015,0.6269989-0.1149979
					C23.4531479,47.2956963,23.6541519,47.1826973,23.8501511,47.0346947 M23.8951492,47.7666969
					c-0.3040009,0.2129974-0.5930023,0.3670044-0.8659973,0.4609985c-0.2710037,0.0930023-0.564003,0.1399994-0.8769989,0.1399994
					c-0.5400009,0-0.9630051-0.1299973-1.2670059-0.3889999c-0.3049927-0.2589951-0.4569931-0.6139984-0.4569931-1.0690002
					c0-0.4259949,0.1649933-0.7999954,0.4959946-1.121994c0.3300018-0.3220062,0.8290024-0.5940018,1.4950027-0.8160019
					l1.4309998-0.4769974c0.0039978-0.0360031,0.0080032-0.0699997,0.0100021-0.1050034s0.0029984-0.0849991,0.0029984-0.1490021
					c0-0.3619995-0.0879974-0.6230011-0.2639999-0.7809982c-0.177002-0.1589966-0.4670029-0.2389984-0.8730011-0.2389984
					c-0.3349991,0-0.6809998,0.0709991-1.0370026,0.211998c-0.3579941,0.1419983-0.7149963,0.3509979-1.072998,0.6310043v-1.189003
					c0.310997-0.2529984,0.6569977-0.4440002,1.0390015-0.5719986c0.3829956-0.1290054,0.7900009-0.1930008,1.2210007-0.1930008
					c0.776001,0,1.3399963,0.1719971,1.6930008,0.5130005c0.3519974,0.3419952,0.5299988,0.8949966,0.5299988,1.6559982v2.5540009
					c0,0.2139969,0.0179977,0.3639984,0.0540009,0.4540024c0.0369949,0.0889969,0.098999,0.1339951,0.1869965,0.1339951
					c0.072998,0,0.151001-0.0199966,0.2310028-0.0589981c0.0810013-0.0390015,0.2129974-0.1299973,0.3949966-0.2740021v0.7320023
					c-0.2179947,0.185997-0.4379959,0.3249969-0.6589966,0.4140015c-0.2220001,0.0889969-0.4530029,0.1339951-0.6930008,0.1339951
					c-0.2310028,0-0.4039993-0.0479965-0.5189972-0.1429977C23.9801483,48.127697,23.9141541,47.9756966,23.8951492,47.7666969"/>
				<path class="st1" d="M27.9190521,47.0481987c0.2190018,0.0780029,0.4259949,0.1380005,0.6259995,0.177002
					c0.2019958,0.0379944,0.4000015,0.0589981,0.5950012,0.0589981c0.6360016,0,1.1289978-0.177002,1.4799957-0.5289993
					c0.3510056-0.3540039,0.526001-0.8550034,0.526001-1.5039978c0-0.6310043-0.1689987-1.1300049-0.5100021-1.4940033
					c-0.3389969-0.3669968-0.7979965-0.5500031-1.3769989-0.5500031c-0.2309952,0-0.4580002,0.038002-0.6759949,0.1119995
					c-0.2190018,0.0740051-0.4420013,0.1870041-0.6640015,0.3390045V47.0481987z M26.7040482,47.9821968v-8.8570023h1.215004
					v3.4430008c0.2259979-0.1609955,0.4690018-0.2809982,0.7289963-0.3569946
					c0.2600021-0.0770035,0.5470047-0.114006,0.8650055-0.114006c0.8789978,0,1.5839996,0.2870026,2.1169968,0.8580017
					c0.5309982,0.572998,0.7959976,1.3339996,0.7959976,2.2840042c0,1.0059967-0.2979965,1.7829971-0.8949966,2.3310013
					c-0.5970001,0.548996-1.439003,0.822998-2.5279999,0.822998c-0.3659973,0-0.7360001-0.0320053-1.112999-0.1010056
					C27.5130539,48.2252007,27.1190491,48.1211967,26.7040482,47.9821968"/>
				<path class="st1" d="M36.5608521,47.0346947v-1.7709961c-0.8089981,0.2539978-1.3680038,0.4860001-1.6760025,0.6999969
					c-0.3059998,0.215004-0.4599991,0.4620056-0.4599991,0.7450027c0,0.2480011,0.0790024,0.439003,0.237999,0.5749969
					c0.1590042,0.1340027,0.3820038,0.2030029,0.6699982,0.2030029c0.2130051,0,0.4220047-0.0390015,0.6270065-0.1149979
					C36.1638489,47.2956963,36.3648529,47.1826973,36.5608521,47.0346947 M36.6068497,47.7666969
					c-0.3059998,0.2129974-0.5940018,0.3670044-0.8659973,0.4609985c-0.2720032,0.0930023-0.5650024,0.1399994-0.8790054,0.1399994
					c-0.5389938,0-0.961998-0.1299973-1.2669983-0.3889999c-0.3040009-0.2589951-0.4560013-0.6139984-0.4560013-1.0690002
					c0-0.4259949,0.1640015-0.7999954,0.4970016-1.121994c0.3290024-0.3220062,0.8280029-0.5940018,1.4930038-0.8160019
					l1.4319992-0.4769974c0.0039978-0.0360031,0.0069962-0.0699997,0.0100021-0.1050034
					c0.0019989-0.0350037,0.0029984-0.0849991,0.0029984-0.1490021c0-0.3619995-0.0890045-0.6230011-0.2649994-0.7809982
					c-0.1760025-0.1589966-0.4670029-0.2389984-0.8710022-0.2389984c-0.336998,0-0.6819992,0.0709991-1.0400009,0.211998
					c-0.3560028,0.1419983-0.7129974,0.3509979-1.0699997,0.6310043v-1.189003
					c0.3089981-0.2529984,0.6549988-0.4440002,1.0390015-0.5719986c0.3829956-0.1290054,0.7910004-0.1930008,1.2200012-0.1930008
					c0.7770004,0,1.3399963,0.1719971,1.6920013,0.5130005c0.3539963,0.3419952,0.5289993,0.8949966,0.5289993,1.6559982v2.5540009
					c0,0.2139969,0.0179977,0.3639984,0.0550003,0.4540024c0.0379944,0.0889969,0.0999985,0.1339951,0.1869965,0.1339951
					c0.0739975,0,0.1520004-0.0199966,0.2320023-0.0589981c0.0799942-0.0390015,0.2129974-0.1299973,0.3949966-0.2740021v0.7320023
					c-0.2180023,0.185997-0.435997,0.3249969-0.6589966,0.4140015c-0.2220001,0.0889969-0.4540024,0.1339951-0.6920013,0.1339951
					c-0.2310028,0-0.4049988-0.0479965-0.5210037-0.1429977C36.6898499,48.127697,36.623848,47.9756966,36.6068497,47.7666969"/>
				<path class="st1" d="M39.3894501,48.2633018v-6.0360031h1.201004v0.7389984
					c0.3009949-0.288002,0.5999985-0.4990005,0.8989944-0.6309967c0.2980042-0.1330032,0.6180038-0.1990051,0.9630051-0.1990051
					c0.6529999,0,1.1689987,0.189003,1.5439987,0.5680008c0.3779984,0.3790054,0.5660019,0.8990021,0.5660019,1.5610046v3.9980011
					h-1.2030029V44.5723c0-0.4869995-0.1029968-0.8479996-0.3099976-1.0810013
					c-0.2070007-0.2320023-0.5279999-0.348999-0.9630051-0.348999c-0.3089981,0-0.5799942,0.0599976-0.8139954,0.1790009
					c-0.2320023,0.1199951-0.4599991,0.3170013-0.6819992,0.5909958v4.3510056H39.3894501z"/>
				<path class="st1" d="M49.0287476,47.0346947v-1.7709961c-0.8099976,0.2539978-1.3669968,0.4860001-1.6749954,0.6999969
					c-0.3069992,0.215004-0.4599991,0.4620056-0.4599991,0.7450027c0,0.2480011,0.0799942,0.439003,0.237999,0.5749969
					c0.1589966,0.1340027,0.3829956,0.2030029,0.6699982,0.2030029c0.2139969,0,0.4230042-0.0390015,0.6279984-0.1149979
					C48.6337509,47.2956963,48.8337479,47.1826973,49.0287476,47.0346947 M49.0757523,47.7666969
					c-0.3059998,0.2129974-0.5940018,0.3670044-0.8660049,0.4609985c-0.2719955,0.0930023-0.5639954,0.1399994-0.8789978,0.1399994
					c-0.538002,0-0.961998-0.1299973-1.2659988-0.3889999c-0.3050003-0.2589951-0.4570007-0.6139984-0.4570007-1.0690002
					c0-0.4259949,0.1650009-0.7999954,0.4960022-1.121994c0.3300018-0.3220062,0.8300018-0.5940018,1.4949951-0.8160019
					l1.4300003-0.4769974c0.0040054-0.0360031,0.0080032-0.0699997,0.0090027-0.1050034
					c0.0029984-0.0350037,0.0049973-0.0849991,0.0049973-0.1490021c0-0.3619995-0.0889969-0.6230011-0.2649994-0.7809982
					c-0.1759949-0.1589966-0.4679947-0.2389984-0.8709946-0.2389984c-0.3360062,0-0.6819992,0.0709991-1.0390015,0.211998
					c-0.3580017,0.1419983-0.715004,0.3509979-1.0709991,0.6310043v-1.189003
					c0.3069992-0.2529984,0.6549988-0.4440002,1.0379944-0.5719986c0.3840027-0.1290054,0.7919998-0.1930008,1.2220001-0.1930008
					c0.7740021,0,1.3390045,0.1719971,1.6910019,0.5130005c0.3530045,0.3419952,0.5289993,0.8949966,0.5289993,1.6559982v2.5540009
					c0,0.2139969,0.0190048,0.3639984,0.0559998,0.4540024c0.0370026,0.0889969,0.098999,0.1339951,0.1860046,0.1339951
					c0.0749969,0,0.151001-0.0199966,0.2309952-0.0589981c0.0810013-0.0390015,0.2130051-0.1299973,0.3960037-0.2740021v0.7320023
					c-0.2180023,0.185997-0.4370041,0.3249969-0.6590042,0.4140015c-0.2229996,0.0889969-0.4529953,0.1339951-0.6919937,0.1339951
					c-0.2320023,0-0.4050064-0.0479965-0.5200043-0.1429977C49.1597519,48.127697,49.09375,47.9756966,49.0757523,47.7666969"/>
				<path class="st1" d="M7.0306482,32.5962944h0.6100006v2.4610062c0,0.272995,0.0149994,0.4669952,0.0440063,0.5810013
					c0.0299988,0.1149979,0.0789948,0.2129974,0.147995,0.2969971c0.1269989,0.1490021,0.2770004,0.2600021,0.4500046,0.3339996
					c0.173996,0.072998,0.3709946,0.1100006,0.5919952,0.1100006c0.3710022,0,0.6699982-0.0960007,0.8980026-0.288002
					c0.2249985-0.1920013,0.3399963-0.4449997,0.3399963-0.7590027v-2.7360001h0.6090012v2.7540054
					c0,0.4789963-0.1699982,0.8639984-0.512001,1.1619949c-0.3409958,0.2970047-0.7859955,0.4460068-1.3349991,0.4460068
					c-0.3249969,0-0.6179962-0.0590057-0.8789978-0.1730042c-0.262001-0.1159973-0.4820023-0.2839966-0.6620026-0.5069962
					C7.223649,36.145298,7.1446543,35.9972954,7.098649,35.834301c-0.0449982-0.1640015-0.0680008-0.4150009-0.0680008-0.7540054
					V32.5962944z"/>
				<path class="st1" d="M11.5179529,36.8814964v-2.8300018h0.5629959v0.3450012
					c0.1410065-0.1339951,0.2820053-0.2309952,0.4220047-0.2949982c0.1389999-0.060997,0.2900009-0.0930023,0.4509964-0.0930023
					c0.3069992,0,0.5480042,0.0890045,0.7259979,0.2670059c0.1750031,0.1769943,0.2640076,0.4209976,0.2640076,0.7309952v1.875
					h-0.564003v-1.7299957c0-0.2290039-0.0490036-0.3980026-0.1450043-0.5080032
					c-0.0970001-0.1090012-0.2479935-0.1640015-0.4519958-0.1640015c-0.1450043,0-0.2720032,0.0279999-0.3810043,0.0849991
					c-0.109993,0.0559998-0.2159958,0.1490021-0.3209991,0.2770004v2.0400009H11.5179529z"/>
				<path class="st1" d="M14.6672525,34.0507011h0.5629959v2.8299942h-0.5629959V34.0507011z M14.63025,33.217701
					c0-0.0890045,0.0309982-0.1650009,0.0920029-0.2260056c0.060997-0.0619965,0.1380005-0.0919952,0.2259979-0.0919952
					c0.0910034,0,0.1660004,0.0299988,0.2269974,0.0919952c0.0610046,0.0610046,0.0920029,0.137001,0.0920029,0.2260056
					c0,0.0909958-0.0309982,0.1650009-0.0920029,0.2279968c-0.060997,0.060997-0.135994,0.0910034-0.2269974,0.0910034
					c-0.0879974,0-0.1650009-0.0300064-0.2259979-0.0910034C14.6612482,33.3827019,14.63025,33.3086967,14.63025,33.217701"/>
				<polygon class="st1" points="16.8868484,36.9366951 15.5258493,34.0517006 16.1528473,34.0517006 17.0248489,35.9296989 
					17.8398514,34.0517006 18.4558487,34.0517006 17.1508484,36.9366951 				"/>
				<path class="st1" d="M19.1704483,35.1631966H20.66745c-0.0179977-0.2070007-0.0930023-0.3710022-0.223999-0.4960022
					c-0.1299973-0.1239929-0.2939987-0.1869965-0.4899979-0.1869965c-0.2170029,0-0.3909988,0.0579987-0.5230026,0.1729965
					C19.2964478,34.7681999,19.2104492,34.9391975,19.1704483,35.1631966 M21.240448,36.5811958
					c-0.1879959,0.1210022-0.3819962,0.2109985-0.5809937,0.2720032c-0.1990051,0.0599976-0.404007,0.0899963-0.6170044,0.0899963
					c-0.4469986,0-0.8040009-0.1389999-1.0699997-0.4160004c-0.2669983-0.2759933-0.4000015-0.6449966-0.4000015-1.1059952
					c0-0.4230042,0.1279984-0.7659988,0.3840027-1.0299988c0.2559967-0.2630005,0.5899963-0.3950043,1.0029984-0.3950043
					c0.4079971,0,0.7320023,0.1340027,0.9720001,0.4000015c0.2389984,0.2689972,0.3580017,0.6299973,0.3580017,1.0859985v0.0830002
					h-2.1190033c0.0149994,0.2669983,0.1030045,0.4759979,0.262001,0.625
					c0.1600037,0.151001,0.3730011,0.2259979,0.6399994,0.2259979c0.1800003,0,0.3680038-0.0329971,0.5620041-0.098999
					c0.1959991-0.0670013,0.3969955-0.1669998,0.6059952-0.3019943V36.5811958z"/>
				<path class="st1" d="M21.8230515,36.8814964v-2.8300018h0.5629959v0.6160049
					c0.1570053-0.2480011,0.2980042-0.4210052,0.4240036-0.5179977c0.1259995-0.0980072,0.262001-0.1470032,0.4079971-0.1470032
					c0.1030045,0,0.2060013,0.0220032,0.3120041,0.0670013c0.1049957,0.0449982,0.2169952,0.1139984,0.3349991,0.2089996
					l-0.3059998,0.5019989c-0.0920029-0.0800018-0.1800003-0.1380005-0.2630005-0.1740036
					c-0.0839996-0.034996-0.1729965-0.0529938-0.2639999-0.0529938c-0.1529999,0-0.2860031,0.0639954-0.4020004,0.1929932
					c-0.1139984,0.1290054-0.1949997,0.3080063-0.2440033,0.5360031v1.598999H21.8230515z"/>
				<path class="st1" d="M23.9847488,36.6889992v-0.6040039c0.1689987,0.1130066,0.3320007,0.1990051,0.4900055,0.2570038
					c0.1579971,0.0599976,0.3009949,0.0899963,0.4319992,0.0899963c0.1449966,0,0.2589951-0.0270004,0.3419952-0.0809937
					c0.0820007-0.0550003,0.1240005-0.1290054,0.1240005-0.2230072c0-0.1189957-0.1549988-0.2539978-0.4629974-0.4069977
					c-0.090004-0.0449982-0.1580048-0.0810013-0.2080002-0.1070023c-0.2639999-0.135994-0.4440002-0.2649994-0.5419998-0.3909988
					s-0.1480026-0.2789993-0.1480026-0.461998c0-0.2360001,0.0859985-0.423996,0.2550049-0.5629959
					c0.1689987-0.1380005,0.4019928-0.2080002,0.6969986-0.2080002c0.159996,0,0.3139954,0.0189972,0.4599991,0.0569992
					c0.1480026,0.0369949,0.2910004,0.0960007,0.4329987,0.1759949v0.5510025
					c-0.173996-0.0950012-0.3320007-0.1669998-0.4759979-0.2129974c-0.1450043-0.0450058-0.2809982-0.0690002-0.4100037-0.0690002
					c-0.1179962,0-0.2089996,0.0209961-0.2750015,0.0619965c-0.0629959,0.0400009-0.0949936,0.0999985-0.0949936,0.177002
					c0,0.1419983,0.1959991,0.3119965,0.5909958,0.5059967c0.0230026,0.0100021,0.0390015,0.0180054,0.052002,0.0240021
					c0.3079987,0.1559982,0.5090027,0.2919998,0.6029968,0.4089966c0.0950012,0.1170044,0.1409988,0.2660065,0.1409988,0.4460068
					c0,0.25-0.0939941,0.4489975-0.2799988,0.5960007c-0.1869965,0.1509933-0.4339981,0.2249985-0.7439957,0.2249985
					c-0.177002,0-0.3450012-0.0200043-0.5060043-0.0620041C24.2977524,36.8349953,24.1397476,36.7719994,23.9847488,36.6889992"/>
				<path class="st1" d="M26.5457535,34.0507011h0.5629959v2.8299942h-0.5629959V34.0507011z M26.5087509,33.217701
					c0-0.0890045,0.0309982-0.1650009,0.0920029-0.2260056c0.0619965-0.0619965,0.1369934-0.0919952,0.2259979-0.0919952
					c0.0909958,0,0.1660004,0.0299988,0.2269974,0.0919952c0.0620041,0.0610046,0.0930023,0.137001,0.0930023,0.2260056
					c0,0.0909958-0.0309982,0.1650009-0.0930023,0.2279968c-0.060997,0.060997-0.1360016,0.0910034-0.2269974,0.0910034
					c-0.0890045,0-0.1640015-0.0300064-0.2259979-0.0910034C26.5397491,33.3827019,26.5087509,33.3086967,26.5087509,33.217701"/>
				<path class="st1" d="M29.800354,36.2537956v-1.5929947c-0.0910034-0.0650024-0.1850052-0.114006-0.2810059-0.1450043
					c-0.0950012-0.0319977-0.1989975-0.0479965-0.3089981-0.0479965c-0.2890015,0-0.5139999,0.0879974-0.6800003,0.2639999
					c-0.1650009,0.1749954-0.2480011,0.4169998-0.2480011,0.7259979c0,0.3079987,0.0830002,0.5510025,0.2480011,0.7269974
					c0.1660004,0.177002,0.3909988,0.2660065,0.6800003,0.2660065c0.1100006,0,0.2139969-0.0170059,0.3089981-0.0490036
					C29.6153488,36.3708,29.7093506,36.3217964,29.800354,36.2537956 M29.800354,36.7257957
					c-0.1040039,0.0719986-0.215004,0.1240005-0.3339996,0.1590042c-0.1200027,0.034996-0.253006,0.0519943-0.4000015,0.0519943
					c-0.4090042,0-0.7410049-0.135994-1-0.409996c-0.2580032-0.2730026-0.3880005-0.6279984-0.3880005-1.0630035
					c0-0.4349976,0.1299973-0.7889938,0.3880005-1.0629959c0.2589951-0.2740021,0.5909958-0.4110031,1-0.4110031
					c0.1429977,0,0.2750015,0.0180054,0.3949966,0.0540009c0.1200027,0.0350037,0.2340012,0.0910034,0.3390045,0.1669998v-1.6149979
					h0.5649948v4.2860031H29.800354V36.7257957z"/>
				<path class="st1" d="M32.4846497,36.3059959v-0.8299942c-0.3809967,0.1179962-0.6419983,0.2269974-0.7859955,0.3269958
					c-0.1430054,0.1009979-0.2160034,0.2170029-0.2160034,0.3499985c0,0.1160049,0.038002,0.2060013,0.1119995,0.2690048
					c0.0739975,0.0639954,0.1790009,0.0949936,0.314003,0.0949936c0.0999985,0,0.197998-0.0179977,0.2939987-0.0539932
					C32.2986526,36.4279976,32.3936539,36.3739967,32.4846497,36.3059959 M32.5066528,36.6479988
					c-0.1440048,0.1009979-0.2789993,0.1729965-0.4060059,0.2170029c-0.1269989,0.0429993-0.2649994,0.0659943-0.4119949,0.0659943
					c-0.2539978,0-0.4530029-0.060997-0.5940018-0.1829987c-0.1439972-0.1210022-0.2149963-0.288002-0.2149963-0.5
					c0-0.1999969,0.0769958-0.3759995,0.2329941-0.5270004c0.1550064-0.1520004,0.3880005-0.2789993,0.701004-0.3839951
					l0.6709976-0.2230072c0.0019989-0.0159988,0.0029984-0.0319977,0.0039978-0.048996
					c0.0020065-0.0159988,0.0020065-0.0400009,0.0020065-0.0699997c0-0.1689987-0.0410004-0.2910004-0.1240005-0.3659973
					c-0.0830002-0.0740051-0.2200012-0.1120071-0.4090042-0.1120071c-0.1569977,0-0.3199997,0.0340042-0.4869995,0.0990067
					c-0.1669998,0.0669937-0.3359985,0.1660004-0.5029984,0.2959976v-0.5569992
					c0.1459961-0.1190033,0.3079987-0.2080002,0.487999-0.2690048c0.1800003-0.0589981,0.3710022-0.0899963,0.572998-0.0899963
					c0.362999,0,0.628006,0.0800018,0.7929993,0.2409973c0.1650009,0.1600037,0.2480011,0.4179993,0.2480011,0.776001v1.197998
					c0,0.1000061,0.0090027,0.1710052,0.026001,0.2120056c0.0169983,0.0429993,0.0459976,0.0629959,0.0879974,0.0629959
					c0.0330048,0,0.0700073-0.0089951,0.1080017-0.026001c0.038002-0.0199966,0.0999985-0.0619965,0.1850052-0.1289978v0.3430023
					c-0.102005,0.086998-0.2040024,0.1520004-0.3090057,0.1949997c-0.1039963,0.0410004-0.211998,0.0619965-0.3249969,0.0619965
					c-0.1080017,0-0.189003-0.022995-0.2440033-0.0680008C32.5456543,36.817997,32.513649,36.7469978,32.5066528,36.6479988"/>
				<path class="st1" d="M35.7627487,36.2537956v-1.5929947c-0.0919952-0.0650024-0.185997-0.114006-0.2829971-0.1450043
					c-0.0950012-0.0319977-0.1989975-0.0479965-0.3079987-0.0479965c-0.2890015,0-0.5149994,0.0879974-0.6809998,0.2639999
					c-0.1650009,0.1749954-0.2480011,0.4169998-0.2480011,0.7259979c0,0.3079987,0.0830002,0.5510025,0.2480011,0.7269974
					c0.1660004,0.177002,0.3919983,0.2660065,0.6809998,0.2660065c0.1090012,0,0.2129974-0.0170059,0.3079987-0.0490036
					C35.5767517,36.3708,35.6707535,36.3217964,35.7627487,36.2537956 M35.7627487,36.7257957
					c-0.1049957,0.0719986-0.2169952,0.1240005-0.3359985,0.1590042c-0.1200027,0.034996-0.2529984,0.0519943-0.4000015,0.0519943
					c-0.4089966,0-0.7409973-0.135994-1-0.409996c-0.2579956-0.2730026-0.387001-0.6279984-0.387001-1.0630035
					c0-0.4349976,0.1290054-0.7889938,0.387001-1.0629959c0.2590027-0.2740021,0.5910034-0.4110031,1-0.4110031
					c0.1430054,0,0.2750015,0.0180054,0.3960037,0.0540009c0.1199951,0.0350037,0.2330017,0.0910034,0.3399963,0.1669998v-1.6149979
					h0.5630035v4.2860031h-0.5630035V36.7257957z"/>
				<path class="st1" d="M40.348053,36.2537956v-1.5929947c-0.0910034-0.0650024-0.1850052-0.114006-0.2820053-0.1450043
					c-0.0960007-0.0319977-0.197998-0.0479965-0.3089981-0.0479965c-0.2870026,0-0.5139999,0.0879974-0.6790009,0.2639999
					c-0.1669998,0.1749954-0.2490005,0.4169998-0.2490005,0.7259979c0,0.3079987,0.0820007,0.5510025,0.2490005,0.7269974
					c0.1650009,0.177002,0.3919983,0.2660065,0.6790009,0.2660065c0.1110001,0,0.2129974-0.0170059,0.3089981-0.0490036
					C40.1630478,36.3708,40.2570496,36.3217964,40.348053,36.2537956 M40.348053,36.7257957
					c-0.1050034,0.0719986-0.215004,0.1240005-0.3349991,0.1590042c-0.1200027,0.034996-0.2520065,0.0519943-0.3990021,0.0519943
					c-0.4100037,0-0.7430038-0.135994-1.0009995-0.409996c-0.2580032-0.2730026-0.3880005-0.6279984-0.3880005-1.0630035
					c0-0.4349976,0.1299973-0.7889938,0.3880005-1.0629959c0.2579956-0.2740021,0.5909958-0.4110031,1.0009995-0.4110031
					c0.1419983,0,0.2730026,0.0180054,0.3939972,0.0540009c0.1200027,0.0350037,0.2330017,0.0910034,0.340004,0.1669998v-1.6149979
					h0.5639954v4.2860031H40.348053V36.7257957z"/>
				<path class="st1" d="M42.0549469,35.1631966h1.4970016c-0.0189972-0.2070007-0.0929947-0.3710022-0.2229996-0.4960022
					c-0.1319962-0.1239929-0.2949982-0.1869965-0.4919968-0.1869965c-0.2160034,0-0.3889999,0.0579987-0.5220032,0.1729965
					C42.1829529,34.7681999,42.0939484,34.9391975,42.0549469,35.1631966 M44.1249542,36.5811958
					c-0.1880035,0.1210022-0.3810043,0.2109985-0.5800018,0.2720032c-0.1990051,0.0599976-0.4059982,0.0899963-0.6180038,0.0899963
					c-0.4469986,0-0.8040009-0.1389999-1.0699997-0.4160004c-0.2669983-0.2759933-0.4000015-0.6449966-0.4000015-1.1059952
					c0-0.4230042,0.128006-0.7659988,0.3850021-1.0299988c0.2560043-0.2630005,0.590004-0.3950043,1.0029984-0.3950043
					c0.4080048,0,0.7320023,0.1340027,0.9700012,0.4000015c0.2389984,0.2689972,0.3590012,0.6299973,0.3590012,1.0859985v0.0830002
					h-2.1190033c0.0160065,0.2669983,0.1040039,0.4759979,0.2630005,0.625
					c0.1600037,0.151001,0.3730011,0.2259979,0.640007,0.2259979c0.1799927,0,0.3669968-0.0329971,0.5619965-0.098999
					c0.1949997-0.0670013,0.3959961-0.1669998,0.6050034-0.3019943V36.5811958z"/>
				<path class="st2" d="M18.4475479,4.0563011l14.3820038-0.0090027l0.0019989,15.5939941
					c-0.0839996,2.5480042-2.5240021,3.7200012-4.8819962,3.7990112c-0.6290054,0.0559998-1.2310028,0.0779877-1.7420044,0.125
					c-0.3129959,0.0469971-0.4629974,0.2899933-0.5670013,0.8849945c-0.1220016-0.5980072-0.3549957-0.8320007-0.6609955-0.8849945
					l-2.0620041-0.1809998c-2.4399948-0.227005-4.052002-1.2910004-4.461998-3.5110016L18.4475479,4.0563011z"/>
				<path class="st3" d="M17.5548477,4.7447014V4.0187035h-0.0799942c0,0.0829926-0.0270004,0.1230011-0.0800018,0.1230011
					h-1.3069992c-0.1740026,0-0.3170004,0.026001-0.4339972,0.0769958c-0.1110001,0.0500031-0.201004,0.125-0.2700043,0.2249908
					c-0.0670013,0.1000061-0.112999,0.2240143-0.1360016,0.3710022C15.223855,4.9667015,15.211854,5.1386986,15.211854,5.3326988
					c0,0.1949921,0.012001,0.3659973,0.0359955,0.5139923c0.0230026,0.151001,0.0690002,0.276001,0.1360016,0.3760071
					c0.0690002,0.1009979,0.1590042,0.177002,0.2700043,0.2259979c0.1169968,0.0500031,0.2599945,0.0740051,0.4339972,0.0740051
					h1.3069992c0.0530014,0,0.0800018,0.0370026,0.0800018,0.1080017h0.0799942V5.9217033h-0.0799942
					c0,0.0889893-0.0270004,0.1329956-0.0800018,0.1329956h-1.3290024c-0.1849966,0-0.3139944-0.0610046-0.3850012-0.1809998
					c-0.0669937-0.1179962-0.1009979-0.2929993-0.1009979-0.522995c0-0.2310028,0.0340042-0.4049988,0.1009979-0.5270081
					c0.0710068-0.1170044,0.2000046-0.1759949,0.3850012-0.1759949h1.3290024c0.0530014,0,0.0800018,0.0319977,0.0800018,0.0970001
					H17.5548477z"/>
				<path class="st3" d="M15.2255487,6.8386955v0.6549988h0.0790024c0-0.0679932,0.026001-0.1019897,0.0800018-0.1019897h1.4690008
					l-1.4070044,1.3509979c-0.0479965,0.04599-0.0820007,0.0699921-0.1039963,0.0699921
					c-0.0250015,0-0.038002-0.0189972-0.038002-0.0579987h-0.0790024v0.7180023h0.0790024
					c0-0.0559998,0.026001-0.0850067,0.0800018-0.0850067h2.0089941c0.0550003,0,0.0810013,0.029007,0.0810013,0.0850067h0.0800018
					V8.8046989h-0.0800018c0,0.076004-0.026001,0.1139984-0.0810013,0.1139984h-1.4069967l1.3189993-1.2700043
					c0.0599976-0.0589905,0.1009979-0.0889893,0.1240005-0.0889893c0.0289993,0,0.0449982,0.0119934,0.0449982,0.0359955h0.0800018
					V6.8386955h-0.0800018c0,0.0550079-0.026001,0.0839996-0.0810013,0.0839996H15.384553
					c-0.0540009,0-0.0800018-0.0289917-0.0800018-0.0839996H15.2255487z"/>
				<path class="st3" d="M15.2241526,9.716198v0.7350006h0.0800018c0-0.0769958,0.026001-0.1150055,0.0799942-0.1150055h2.0100012
					c0.052002,0,0.0790024,0.0380096,0.0790024,0.1150055h0.0800018V9.716198h-0.0800018
					c0,0.0769958-0.0270004,0.1150055-0.0790024,0.1150055h-2.0100012c-0.0539932,0-0.0799942-0.0380096-0.0799942-0.1150055
					H15.2241526z"/>
				<path class="st3" d="M17.5535507,13.4522972v-0.7740021h-0.0800018c0,0.0820007-0.0239944,0.1230011-0.0709991,0.1230011
					c-0.0240021,0-0.0660019-0.0159912-0.1289978-0.0480042c-0.0579987-0.0299988-0.1279984-0.0619965-0.2040024-0.098999
					l-1.1989965-0.5529938l1.2159948-0.5659943c0.0750046-0.0360107,0.1380005-0.0660095,0.1870041-0.0920105
					c0.0499954-0.0240021,0.0919952-0.0370026,0.1240005-0.0370026c0.0299988,0,0.048996,0.0100098,0.0579987,0.0279999
					c0.0110016,0.0210114,0.0179977,0.0410004,0.0179977,0.0610046h0.0800018v-0.7919922h-0.0800018
					c-0.0149994,0.0499878-0.0299988,0.0879974-0.0449982,0.1139984c-0.0159988,0.0279999-0.038002,0.0479889-0.0719986,0.0629883
					l-1.729003,0.7970123c-0.0680008,0.0319977-0.1259995,0.0579987-0.1729965,0.0789948
					c-0.0439987,0.022995-0.0739975,0.0350037-0.0879974,0.0350037c-0.0300064,0-0.0510025-0.0130005-0.0630035-0.0390015
					h-0.0800018v0.677002h0.0800018c0.0090027-0.0110016,0.0169983-0.0220032,0.0270004-0.0299988
					c0.0090027-0.0070038,0.0199966-0.0100098,0.0360031-0.0100098c0.0139999,0,0.0389938,0.0100098,0.0749969,0.0279999
					c0.034996,0.0160065,0.0820007,0.0390015,0.1419983,0.0650024l1.7209997,0.7839966
					c0.026001,0.0120087,0.060997,0.0310059,0.1029968,0.0579987c0.0430069,0.0270081,0.0660019,0.0690002,0.0660019,0.128006
					H17.5535507z"/>
				<path class="st3" d="M17.0740509,15.9797935h0.5839996v-0.0789948c-0.0309982,0-0.0579987-0.0140076-0.0790024-0.0410004
					c-0.0179977-0.0240021-0.0270004-0.0650024-0.0270004-0.128006v-2.0189972h-0.0799942
					c0,0.0200043-0.0060043,0.0390015-0.0220032,0.0540009c-0.0110016,0.0180054-0.0309982,0.0270081-0.0579987,0.0270081H15.38305
					c-0.026001,0-0.0479965-0.0090027-0.0619965-0.0270081c-0.0110016-0.0149994-0.0190048-0.0339966-0.0190048-0.0540009
					h-0.0779953v2.0630035c0,0.0449982-0.0040054,0.0800018-0.0090027,0.1060028
					c-0.0069962,0.0299988-0.0309982,0.0449982-0.0759964,0.0449982v0.0789948h0.6069946v-0.0789948
					c-0.0359955,0-0.0629959-0.0149994-0.0849991-0.0449982c-0.0189972-0.026001-0.0299988-0.0610046-0.0299988-0.1060028V14.297802
					h0.6109991v0.8679962c0,0.0579987-0.0110016,0.1040039-0.0309982,0.1369934
					c-0.0159988,0.0320129-0.0610046,0.0480042-0.1269989,0.0480042v0.0800018h0.6899948v-0.0800018
					c-0.0690002,0-0.1119995-0.0159912-0.1299973-0.0480042c-0.0139999-0.0329895-0.0209961-0.0789948-0.0209961-0.1369934
					V14.297802h0.548996v1.4339905c0,0.0630035-0.0090027,0.1040039-0.0270004,0.128006
					c-0.0149994,0.0269928-0.038002,0.0410004-0.0709991,0.0410004V15.9797935z"/>
				<path class="st3" d="M16.5226517,17.0953026l-0.0060043,0.7659912c0,0.1060028,0.0060043,0.1950073,0.0220032,0.2649994
					c0.0169983,0.0709991,0.0400009,0.1269989,0.0699997,0.1690063c0.0299988,0.0419922,0.064003,0.0709991,0.1019974,0.0890045
					c0.0419998,0.0179901,0.0850067,0.026001,0.1330032,0.026001c0.0469971,0,0.0899963-0.0080109,0.1279984-0.026001
					c0.0429993-0.0180054,0.076004-0.0470123,0.1070023-0.0890045c0.0289993-0.0420074,0.052002-0.0980072,0.0660019-0.1690063
					c0.0169983-0.0699921,0.026001-0.1589966,0.026001-0.2649994v-0.7669983L16.5226517,17.0953026z M17.551651,16.4622917
					v1.5140076c0,0.1419983-0.0130005,0.2700043-0.0400009,0.3849945c-0.0240021,0.1150055-0.0629959,0.2150116-0.1200027,0.2969971
					c-0.0509949,0.0820007-0.1229935,0.1460114-0.211998,0.1900024c-0.0849991,0.0440063-0.1910019,0.0670013-0.3190002,0.0670013
					c-0.1940002,0-0.3429947-0.0589905-0.4469986-0.173996c-0.1019974-0.1150055-0.1719971-0.2700043-0.2080002-0.4640045
					l-0.8410025,0.5890045c-0.0289993,0.0209961-0.0469971,0.0440063-0.0519943,0.0709991
					c-0.0070038,0.029007-0.0100021,0.0559998-0.0100021,0.0789948H15.223649v-0.8279877h0.0790024
					c0,0.0269928,0.0059967,0.048996,0.0139999,0.0669861c0.0090027,0.0210114,0.0199966,0.0320129,0.0360031,0.0320129
					c0.0139999,0,0.0309982-0.0070038,0.0479965-0.0190125c0.0200043-0.0109863,0.0469971-0.0299988,0.0800018-0.0529938
					l0.6889944-0.4869995v-0.6340027h-0.7859945c-0.0270004,0-0.0480042,0.0100098-0.0630035,0.029007
					c-0.010994,0.019989-0.0179977,0.0559998-0.0179977,0.1049957H15.223649v-0.7660065h0.0790024
					c0,0.0850067,0.026001,0.1290131,0.0810013,0.1290131h2.0079947c0.0540009,0,0.0800018-0.0440063,0.0800018-0.1290131H17.551651
					z"/>
				<path class="st3" d="M15.4178553,19.3932915l-0.0360031,0.0620117c0.0240021,0.0169983,0.0360031,0.0359955,0.0360031,0.0569916
					c0,0.0319977-0.012001,0.0709991-0.0360031,0.1150055c-0.0200043,0.0449982-0.0449982,0.1029968-0.0749969,0.177002
					c-0.0270004,0.0769958-0.0500031,0.1719971-0.0710068,0.2829895c-0.0179977,0.1150055-0.0270004,0.2570038-0.0270004,0.4260101
					c0,0.1199951,0.0090027,0.2509918,0.0270004,0.3889923c0.0210037,0.1419983,0.0590057,0.2740021,0.1150055,0.3939972
					c0.0569992,0.1220093,0.1329956,0.2220001,0.2299957,0.302002c0.0979996,0.0830078,0.2229996,0.1230011,0.3779984,0.1230011
					c0.1320028,0,0.2390051-0.0269928,0.3220053-0.0800018c0.0830002-0.0499878,0.1469955-0.1169891,0.1949997-0.2039948
					c0.0499954-0.0820007,0.0849991-0.177002,0.1059952-0.2870026c0.0240021-0.1060028,0.0400009-0.2160034,0.0480042-0.3280029
					c0.0110016-0.1119995,0.0179977-0.2220001,0.022995-0.3309937c0.0060043-0.1069946,0.0180054-0.2030029,0.0360031-0.2890015
					c0.0169983-0.0809937,0.0439987-0.1499939,0.0790024-0.2030029c0.034996-0.0509949,0.0879974-0.0759888,0.1589966-0.0759888
					c0.0500031,0,0.0920029,0.0189972,0.1240005,0.0549927c0.0360031,0.0379944,0.064003,0.0850067,0.0849991,0.1399994
					c0.0200043,0.0570068,0.0350037,0.1190033,0.0419998,0.1860046c0.0130005,0.071991,0.0190048,0.1389923,0.0190048,0.2030029
					c0,0.0869904-0.0090027,0.1719971-0.026001,0.2579956c-0.0149994,0.0849915-0.0350037,0.1649933-0.0610046,0.2389984
					c-0.0279999,0.0740051-0.0589981,0.1380005-0.0939941,0.1909943c-0.0330048,0.0559998-0.0660019,0.0960083-0.102005,0.1190033
					c-0.0279999,0.0180054-0.0599976,0.0299988-0.1019974,0.0359955l-0.0169983,0.0440063l0.5519943,0.3049927l0.0360031-0.0529938
					c-0.0169983-0.0180054-0.026001-0.0469971-0.026001-0.0890045c0-0.0379944,0.0110016-0.0859985,0.0350037-0.144989
					c0.0239944-0.0570068,0.048996-0.1269989,0.0769958-0.2130127c0.0240021-0.0839996,0.0500031-0.1809998,0.072998-0.2969971
					c0.0250015-0.1149902,0.0360031-0.25,0.0360031-0.4059906c0-0.1850128-0.0220032-0.3430023-0.0670013-0.480011
					c-0.0410004-0.1349945-0.0950012-0.2459869-0.1640015-0.3349915c-0.0659943-0.0890045-0.1449966-0.1560059-0.2329941-0.1990051
					c-0.090004-0.0419922-0.1790009-0.0639954-0.2700043-0.0639954c-0.1360016,0-0.2470016,0.026001-0.3320007,0.0769958
					c-0.0839996,0.053009-0.1500015,0.1210022-0.1999969,0.2039948c-0.0480042,0.0850067-0.0810013,0.1809998-0.1019974,0.2870026
					c-0.0210037,0.1090088-0.0350037,0.2190094-0.0440063,0.3320007c-0.0089951,0.1119995-0.0169983,0.2210083-0.0219955,0.3270111
					c-0.0029984,0.1099854-0.012001,0.2049866-0.0270004,0.2879944c-0.0149994,0.0859985-0.0390015,0.1519928-0.0709991,0.2030029
					c-0.0309982,0.0540009-0.0829992,0.0809937-0.1490011,0.0809937c-0.0690002,0-0.1220016-0.0289917-0.1640015-0.0839996
					C15.6898508,21.0763054,15.6578531,21.009304,15.63585,20.9333c-0.0240021-0.0769958-0.0419998-0.154007-0.0499954-0.2340088
					c-0.0050049-0.0799866-0.0090027-0.144989-0.0090027-0.1949921c0-0.0690002,0.0069962-0.1439972,0.0220032-0.2310028
					c0.0179977-0.0849915,0.0410004-0.1679993,0.0669937-0.246994c0.0270004-0.0780029,0.0550003-0.1460114,0.0890045-0.2080078
					c0.0329971-0.0589905,0.0699997-0.098999,0.1059952-0.1190033c0.0200043-0.0130005,0.0440063-0.0179901,0.0690002-0.0179901
					l0.0240021-0.0449982L15.4178553,19.3932915z"/>
				<path class="st3" d="M15.5992517,22.7707939l0.310997,0.6650085l0.0730057-0.0330048
					c-0.0330048-0.0690002-0.0250015-0.1150055,0.0239935-0.1369934l1.8209991-0.8500061
					c0.0480042-0.022995,0.0880051,0.0010071,0.1190033,0.0709991l0.0739975-0.0330048l-0.3099976-0.6660004l-0.072998,0.0330048
					c0.0319977,0.0700073,0.0240021,0.1159973-0.0230026,0.1370087l-1.8209982,0.8499908
					c-0.048996,0.022995-0.0889969-0.0019989-0.1220016-0.0709991L15.5992517,22.7707939z"/>
				<path class="st3" d="M18.2963486,23.3137016l-0.9440002,1.2509918l0.5480042,0.4130096
					c0.1110001,0.0839996,0.2139969,0.147995,0.310997,0.1909943s0.1900024,0.0619965,0.2799988,0.0550079
					c0.0910034-0.0090027,0.1809998-0.0430145,0.2670059-0.102005c0.0879974-0.0599976,0.1779938-0.1500092,0.2709961-0.272995
					c0.0920029-0.1220093,0.1549988-0.2340088,0.1870041-0.3360138c0.0339966-0.0999908,0.0429993-0.1940002,0.0239944-0.2809906
					c-0.0169983-0.0910034-0.0589981-0.1760101-0.1279984-0.2570038c-0.0680008-0.0809937-0.1569977-0.1649933-0.2679977-0.2480011
					L18.2963486,23.3137016z M18.0413513,22.6457024l1.1729965,0.8840027
					c0.1290054,0.0979919,0.2360001,0.2079926,0.3180008,0.3289948c0.0849991,0.1230011,0.1389999,0.2529907,0.163002,0.3939972
					c0.0250015,0.1380005,0.0169983,0.2830048-0.0240021,0.4369965c-0.0400009,0.151001-0.1199951,0.3050079-0.2389984,0.4629974
					c-0.1189957,0.1570129-0.2470016,0.279007-0.3830032,0.3610077c-0.1339951,0.0789948-0.2709961,0.1260071-0.4129944,0.1419983
					c-0.1389999,0.0140076-0.2789993-0.0039978-0.4210052-0.0500031c-0.1389999-0.0469971-0.2739944-0.1179962-0.4029999-0.2169952
					l-1.173996-0.8849945l0.048996-0.0640106c0.0530014,0.0400085,0.0970001,0.0400085,0.1290054-0.0019989l1.2109985-1.6040039
					c0.0309982-0.0419922,0.0199966-0.0849915-0.0340042-0.125L18.0413513,22.6457024z"/>
				<path class="st3" d="M20.7534485,24.8390923l-0.6279984,0.6760101l0.7580032,0.2180023L20.7534485,24.8390923z
					 M19.0524521,26.0640984c0.038002,0.0050049,0.0719986-0.0039978,0.1009979-0.0299988
					c0.0319977-0.026001,0.0630035-0.0550079,0.0940018-0.0899963l1.262001-1.4290009
					c0.0299988-0.0299988,0.0569992-0.0590057,0.0820007-0.0870056c0.0239944-0.0249939,0.0410004-0.0509949,0.0479965-0.072998
					c0.0070038-0.029007,0.0029984-0.052002-0.012001-0.0679932c-0.0179977-0.0170135-0.0359955-0.0320129-0.0579987-0.0440063
					l0.0230026-0.0769958l0.7169952,0.2059937l-0.0209961,0.076004c-0.0210037,0-0.0429993,0.0029907-0.0670013,0.0090027
					c-0.0220032,0.0029907-0.0370026,0.0189972-0.0469971,0.0509949c-0.0070038,0.0240021-0.0080032,0.0469971-0.0070038,0.0720062
					c0.0049973,0.0259857,0.0130005,0.0609894,0.0220032,0.1039886l0.3880005,1.9840088
					c0.0049973,0.0349884,0.0179977,0.0639954,0.0359955,0.0849915c0.0220032,0.0210114,0.0460052,0.0429993,0.072998,0.0670013
					l-0.0219955,0.076004l-0.7490005-0.2149963l0.0230026-0.076004c0.0099945,0.003006,0.0259933,0.003006,0.0449982,0
					c0.0199966-0.0039978,0.0319977-0.0140076,0.0370026-0.0319977c0.0079956-0.0279999,0.0069962-0.0680084-0.003006-0.1210022
					l-0.0709991-0.3610077l-1.038002-0.2969971l-0.2399979,0.2580109c-0.0449982,0.0519867-0.0709991,0.0899963-0.0800018,0.1159973
					c-0.0079956,0.0309906,0.0149994,0.0540009,0.0690002,0.0699921l-0.0219955,0.076004l-0.6050034-0.173996L19.0524521,26.0640984
					z"/>
				<path class="st3" d="M22.4864502,26.5713921l0.1350021-1.5519867l0.6829987,0.0609894
					c0.1380005,0.0110016,0.2580032,0.0339966,0.3590012,0.0660095c0.1009979,0.0329895,0.1829987,0.0829926,0.2439957,0.1499939
					c0.0630035,0.0650024,0.1060028,0.1499939,0.1290054,0.2510071c0.0270004,0.1039886,0.034996,0.2309875,0.0209961,0.3849945
					c-0.0139999,0.1519928-0.0419998,0.2769928-0.086998,0.3739929c-0.0410004,0.0980072-0.0979996,0.1740112-0.1709976,0.230011
					c-0.0730057,0.052002-0.1610031,0.0869904-0.2660065,0.1019897c-0.1049957,0.0130005-0.2269974,0.0149994-0.3639984,0.0019989
					l-0.6839981-0.0589905L22.4864502,26.5713921z M22.0504532,24.5884056l-0.0070038,0.0789948
					c0.0680008,0.0059967,0.098999,0.0350037,0.0940018,0.0869904l-0.1740036,2.0020142
					c-0.0049973,0.0549927-0.0410004,0.0769958-0.1100006,0.0709991l-0.0049973,0.0799866l1.4629974,0.1290131
					c0.1620026,0.0130005,0.314003,0.0029907,0.4570007-0.0320129c0.1450043-0.0349884,0.2730026-0.0939941,0.3840027-0.1789856
					c0.1119995-0.0890045,0.2030029-0.201004,0.2740021-0.3420105c0.0709991-0.1409912,0.1149979-0.3109894,0.1329956-0.5059967
					c0.0170059-0.1990051,0.003006-0.3710022-0.0429993-0.5209961c-0.0459976-0.151001-0.1159973-0.279007-0.2099991-0.3830109
					c-0.0960007-0.1059875-0.2109985-0.1879883-0.348999-0.246994c-0.1330032-0.0599976-0.2819977-0.095993-0.4430008-0.1109924
					L22.0504532,24.5884056z"/>
				<path class="st3" d="M26.4521484,25.3475914h0.6860046c0.1399994,0,0.2589951,0.0120087,0.3619995,0.0350037
					c0.1039963,0.0240021,0.1910019,0.0670013,0.2579956,0.1289978c0.0680008,0.0590057,0.1190033,0.1380005,0.1500015,0.2389984
					c0.0360031,0.1010132,0.0540009,0.2280121,0.0540009,0.381012s-0.0179977,0.2799988-0.0540009,0.3799896
					c-0.0309982,0.1000061-0.0820007,0.1829987-0.1500015,0.2440033c-0.0669937,0.0590057-0.1539993,0.1000061-0.2579956,0.1240082
					c-0.1030045,0.0239868-0.2220001,0.0349884-0.3619995,0.0349884h-0.6860046V25.3475914z M25.8461533,24.9676018v0.0789948
					c0.0680008,0,0.1019974,0.026001,0.1019974,0.0800018v2.0099945c0,0.053009-0.0339966,0.07901-0.1019974,0.07901v0.0809937
					h1.4689941c0.1610031,0,0.3130035-0.0240021,0.451004-0.0709991c0.1419983-0.048996,0.2649994-0.1199951,0.3679962-0.2129974
					c0.1030045-0.0980072,0.1850052-0.2190094,0.2450027-0.3619995c0.0579987-0.1500092,0.086998-0.3220062,0.086998-0.5189972
					c0-0.197998-0.0289993-0.3690033-0.086998-0.5140076c-0.0599976-0.147995-0.1419983-0.2669983-0.2450027-0.3629913
					c-0.1029968-0.0970001-0.2259979-0.1700134-0.3679962-0.2170105c-0.1380005-0.0469971-0.2900009-0.0699921-0.451004-0.0699921
					H25.8461533z"/>
				<path class="st3" d="M30.8922501,24.9132042l-0.1009979-0.576004l-0.0800018,0.0149994
					c0.0070038,0.0310059-0.0019989,0.0590057-0.0250015,0.0849915c-0.0189972,0.0210114-0.0599976,0.0370026-0.1209946,0.0480042
					l-1.9880066,0.3509979l0.0139999,0.0780029c0.0210037-0.0029907,0.0390015,0,0.0559998,0.0130005
					c0.0190048,0.0079956,0.0330048,0.0250092,0.0360031,0.052002l0.348999,1.9790039
					c0.0039978,0.026001-0.0009995,0.0469971-0.0139999,0.0650024c-0.0149994,0.0149994-0.0299988,0.0239868-0.0510025,0.0269928
					l0.0130005,0.0789948l2.0320053-0.3580017c0.0439987-0.0089874,0.0799942-0.0119934,0.1069946-0.0099945
					c0.029007,0,0.0500031,0.0220032,0.0570068,0.0660095l0.0769958-0.0140076l-0.1049957-0.5970001l-0.0780029,0.0149994
					c0.0059967,0.0339966-0.0039978,0.0639954-0.0279999,0.0899963c-0.0230026,0.0240021-0.0569992,0.0410004-0.1009979,0.0480042
					l-1.4560013,0.2579956l-0.1050034-0.6029968l0.8550034-0.1499939c0.0569992-0.0100098,0.1039963-0.0080109,0.1399994,0.0069885
					c0.0339966,0.0110016,0.0579987,0.0510101,0.0709991,0.1180115l0.0770035-0.0140076l-0.1190033-0.6799927l-0.0780029,0.0130005
					c0.0110016,0.0679932,0.003006,0.1139984-0.0270004,0.1360016c-0.0279999,0.0189972-0.0719986,0.0339966-0.1299973,0.0439911
					l-0.8550034,0.151001l-0.0949936-0.5410004l1.4129944-0.2480011c0.0610046-0.0110016,0.1030045-0.0090027,0.1300049,0.0039978
					c0.0289993,0.0090027,0.0459976,0.0299988,0.0509949,0.0630035L30.8922501,24.9132042z"/>
				<path class="st3" d="M34.9936523,24.2329979l0.0569992-0.0540009l-0.4160004-0.4420013l-0.0579987,0.0550079
					c0.0250015,0.026001,0.0329971,0.0559998,0.026001,0.0919952c-0.0050049,0.0339966-0.0230026,0.0650024-0.0559998,0.095993
					l-1.0699997,1.0080109l-1.2080002-1.2799988c-0.0360031-0.0390015-0.026001-0.0859985,0.0339966-0.1440125l-0.0540009-0.0579987
					l-0.5530014,0.5230103l0.0540009,0.0579987c0.0650024-0.0610046,0.1160049-0.0720062,0.1500015-0.0330048l1.3820038,1.4600067
					c0.0359955,0.0399933,0.0209961,0.0889893-0.0430069,0.1499939l0.0550003,0.0590057l1.5330048-1.447998
					c0.0309982-0.0310059,0.0589981-0.052002,0.0830002-0.0660095
					C34.9356537,24.1919975,34.9626541,24.2010002,34.9936523,24.2329979"/>
				<path class="st3" d="M34.9037476,22.0491905l-0.8959961,0.0430145l0.6139984,0.6889954l0.2870026-0.7320099H34.9037476z
					 M35.0627518,23.9042015c0.0079956-0.0390015,0.0019989-0.072998-0.0210037-0.1040039
					c-0.0209961-0.0350037-0.0469971-0.0690002-0.0789948-0.102005l-1.3010025-1.394989
					c-0.0270004-0.0330048-0.0540009-0.0630035-0.0790024-0.0890045c-0.0219955-0.0270081-0.0459976-0.0460052-0.0670013-0.0550079
					c-0.0289993-0.0099945-0.0519943-0.0079956-0.0699997,0.006012c-0.0189972,0.0149994-0.0359955,0.0339966-0.0499954,0.052002
					l-0.0739975-0.0279999l0.2739944-0.6960144l0.0750046,0.029007c-0.0020065,0.0209961-0.0009995,0.0429993,0.0029984,0.0670013
					c0.0009995,0.0220032,0.0159988,0.0399933,0.0459976,0.052002c0.0220032,0.0079956,0.0439987,0.0139923,0.0709991,0.0139923
					c0.0250015-0.0029907,0.0610046-0.0059967,0.1030045-0.0119934l2.0139999-0.1950073
					c0.0369949-0.0009918,0.0649948-0.0099945,0.0879974-0.0269928c0.0230026-0.0200043,0.0479965-0.0420074,0.072998-0.0670013
					l0.0750046,0.029007l-0.2860031,0.7249908l-0.0739975-0.0289917c0.0029984-0.0110016,0.0039978-0.026001,0.0029984-0.0470123
					c-0.0009995-0.0189972-0.012001-0.0319977-0.0270004-0.0379944c-0.0279999-0.0110016-0.0680008-0.0139923-0.1200027-0.0099945
					l-0.3669968,0.0359955l-0.3970032,1.0059967l0.2340012,0.2620087c0.0470047,0.0509949,0.0839996,0.0820007,0.1070023,0.0909882
					c0.0309982,0.0110016,0.0559998-0.0089874,0.0780029-0.0609894l0.0719986,0.0299988l-0.2300034,0.5849915L35.0627518,23.9042015
					z"/>
				<path class="st3" d="M35.8500519,20.1531029l0.034996-0.0620117c-0.022995-0.0189972-0.034996-0.0369873-0.034996-0.0569916
					c0-0.0330048,0.012001-0.0709991,0.034996-0.1159973c0.0210037-0.0429993,0.0450058-0.1040039,0.0740051-0.177002
					c0.0270004-0.0769958,0.0509949-0.1710052,0.0719986-0.2830048c0.0169983-0.1149902,0.0270004-0.2570038,0.0270004-0.4250031
					c0-0.1199951-0.0100021-0.25-0.0270004-0.3899994c-0.0210037-0.1409912-0.0579987-0.272995-0.1139984-0.3939972
					s-0.1340027-0.2200012-0.2320023-0.3009949c-0.0970001-0.0820007-0.2220001-0.1230011-0.375-0.1230011
					c-0.1330032,0-0.2409973,0.026001-0.3239975,0.0789948c-0.0820007,0.0500031-0.1470032,0.1179962-0.1940002,0.2030029
					c-0.0510025,0.0839996-0.0870056,0.1800079-0.1080017,0.2890015c-0.0210037,0.1060028-0.0390015,0.2140045-0.0480042,0.3269958
					c-0.0089951,0.1119995-0.0149994,0.2230072-0.0219955,0.3320007c-0.0050049,0.1060028-0.0159988,0.201004-0.0350037,0.2880096
					c-0.0169983,0.0819855-0.0439987,0.1509857-0.0789948,0.2029877c-0.0360031,0.0510101-0.0890045,0.076004-0.1610031,0.076004
					c-0.048996,0-0.0909958-0.0189972-0.1230011-0.0529938c-0.0359955-0.0380096-0.0639954-0.0850067-0.0839996-0.1419983
					c-0.0209961-0.0559998-0.034996-0.1190033-0.0439987-0.1860046c-0.012001-0.0700073-0.0179977-0.1380005-0.0179977-0.2030029
					c0-0.0859985,0.0089951-0.1719971,0.0270004-0.2570038c0.0139999-0.0859985,0.034996-0.1660004,0.0619965-0.2399902
					c0.026001-0.0720062,0.0569992-0.1360016,0.0910034-0.1890106c0.0339966-0.0559998,0.0680008-0.0970001,0.1039963-0.1210022
					c0.0250015-0.0159912,0.0589981-0.0289917,0.0999985-0.0339966l0.0190048-0.0449982l-0.5540009-0.3040009l-0.0350037,0.052002
					c0.0180054,0.0169983,0.0279999,0.0469971,0.0279999,0.0879974c0,0.0390015-0.0130005,0.0870056-0.0369949,0.1470032
					c-0.0230026,0.0559998-0.0490036,0.1260071-0.0750046,0.2120056c-0.0270004,0.0829926-0.0530014,0.1819916-0.0749969,0.29599
					c-0.0240021,0.1150055-0.0350037,0.2519989-0.0350037,0.4080048c0,0.1820068,0.0220032,0.3419952,0.0660019,0.477005
					c0.0400009,0.1360016,0.0960007,0.2489929,0.163002,0.3369904c0.0680008,0.0890045,0.1459961,0.1569977,0.2360001,0.1990051
					c0.0879974,0.0419922,0.177002,0.0630035,0.2689972,0.0630035c0.1350021,0,0.2470016-0.0250092,0.3320007-0.076004
					c0.0830002-0.0529938,0.1490021-0.1210022,0.1999969-0.2039948c0.0460052-0.0850067,0.0810013-0.1809998,0.1000061-0.2870026
					c0.0209961-0.1090088,0.0359955-0.2200012,0.0449982-0.3320007c0.0090027-0.1100006,0.0169983-0.2210083,0.0220032-0.3280029
					c0.0029984-0.1089935,0.010994-0.2050018,0.0259933-0.2879944c0.0160065-0.0839996,0.038002-0.1520081,0.0709991-0.2030029
					c0.0340042-0.0540009,0.0840073-0.0800018,0.1520004-0.0800018c0.0680008,0,0.1220016,0.0279999,0.163002,0.0839996
					s0.0739975,0.121994,0.0979996,0.1990051c0.0220032,0.0769958,0.0390015,0.1559906,0.0490036,0.2339935
					c0.0049973,0.0820007,0.0089951,0.1459961,0.0089951,0.1950073c0,0.0690002-0.0069962,0.144989-0.022995,0.2309875
					c-0.0190048,0.0860138-0.0400009,0.1690063-0.0660019,0.2480011c-0.0279999,0.0770111-0.0559998,0.1460114-0.0889969,0.2080078
					c-0.0350037,0.0599976-0.0699997,0.098999-0.1070023,0.1190033c-0.0189972,0.0119934-0.0449982,0.0179901-0.0709991,0.0179901
					l-0.0200043,0.0449982L35.8500519,20.1531029z"/>
				<path class="st3" d="M35.1385498,16.0447044l-0.8129959,0.3669891l0.822998,0.4160004v-0.7879944L35.1385498,16.0447044z
					 M35.9725494,17.7086906c-0.0059967-0.0389862-0.0270004-0.0679932-0.0569992-0.0889893
					c-0.0339966-0.0240021-0.0680008-0.0460052-0.1119995-0.0660095L34.08255,16.7346916
					c-0.038002-0.0209961-0.072998-0.0379944-0.1049957-0.0540009c-0.0330048-0.0179901-0.0620041-0.0259857-0.0850067-0.0259857
					c-0.0299988,0-0.0509949,0.0109863-0.0619965,0.0309906c-0.0130005,0.0209961-0.0210037,0.0429993-0.0279999,0.0660095
					h-0.0790024v-0.7480011h0.0790024c0.0069962,0.0209961,0.0149994,0.0419922,0.0279999,0.0629883
					c0.0080032,0.0200043,0.0279999,0.0299988,0.0619965,0.0299988c0.0230026,0,0.0460052-0.0039978,0.0699997-0.0130005
					c0.0240021-0.0119934,0.0550003-0.0279999,0.0940018-0.0479889l1.8010025-0.9210052
					c0.0339966-0.0159912,0.0559998-0.0339966,0.0709991-0.0579987c0.0149994-0.026001,0.0289993-0.0559998,0.0439987-0.0879974
					h0.0800018v0.7789917h-0.0800018c0-0.0119934-0.0049973-0.0269928-0.0130005-0.0449982
					c-0.0099945-0.0169983-0.022995-0.026001-0.0390015-0.026001c-0.0289993,0-0.0690002,0.0110016-0.1169968,0.0360107
					l-0.3259964,0.1669922v1.0810089l0.3139954,0.1589966c0.0610046,0.0289917,0.1050034,0.0449982,0.1320038,0.0449982
					c0.0329971,0,0.048996-0.029007,0.048996-0.0839996h0.0800018v0.6279907H35.9725494z"/>
				<path class="st3" d="M34.6362534,14.1435966h-0.5230026v-0.8450012c0-0.1340027,0.0179977-0.2420044,0.0530014-0.3280029
					c0.0319977-0.0879974,0.1029968-0.1329956,0.211998-0.1329956c0.1080017,0,0.1819992,0.0449982,0.2170029,0.1329956
					c0.0319977,0.0859985,0.048996,0.1940002,0.048996,0.3280029v0.8450012H34.6362534z M35.6382523,14.1435966h-0.6139984
					v-0.8450012c0-0.1860046,0.0289993-0.3190002,0.0889969-0.3990021c0.0559998-0.0820007,0.1299973-0.125,0.2259979-0.125
					c0.0950012,0,0.1720047,0.0429993,0.2300034,0.125c0.0550003,0.0800018,0.0849991,0.2129974,0.0849991,0.3990021v0.8450012
					H35.6382523z M33.732254,13.3865929v1.3860016h0.0799942c0-0.0829926,0.026001-0.1239929,0.0800018-0.1239929h2.0090027
					c0.0530014,0,0.0799942,0.0410004,0.0799942,0.1239929h0.0790024v-1.625c0-0.1380005-0.0139999-0.2619934-0.0449982-0.3730011
					c-0.0309982-0.1080017-0.076004-0.1999969-0.1320038-0.2740021c-0.0559998-0.0759888-0.1209946-0.1329956-0.1949997-0.1719971
					c-0.0759964-0.0379944-0.1579971-0.0569916-0.246994-0.0569916c-0.1679993,0-0.2970047,0.0479889-0.3860016,0.1469879
					c-0.090004,0.0930023-0.1580048,0.2090149-0.1990051,0.3480072h-0.0079956
					c-0.0410004-0.1179962-0.0970001-0.2200012-0.1730042-0.3049927c-0.0769958-0.0850067-0.1849976-0.128006-0.322998-0.128006
					c-0.1149979,0-0.2109985,0.0289917-0.288002,0.0879974c-0.0799942,0.0579987-0.1439972,0.1380005-0.1889954,0.2340088
					c-0.0510025,0.098999-0.086998,0.2109985-0.1070023,0.3359985C33.7442474,13.1195946,33.732254,13.2515984,33.732254,13.3865929
					"/>
				<path class="st3" d="M35.1604538,10.6011925l-0.8190002,0.3700104l0.822998,0.4160004v-0.7880096L35.1604538,10.6011925z
					 M35.9884491,12.2681999c-0.0059967-0.0390015-0.0240021-0.0680084-0.0569992-0.0890045
					c-0.0329971-0.0220032-0.0680008-0.0449982-0.1100006-0.0670013l-1.7229996-0.8190002
					c-0.038002-0.019989-0.0739975-0.0370026-0.1060028-0.052002c-0.0309982-0.0179901-0.0599976-0.026001-0.0829926-0.026001
					c-0.0300064,0-0.0510025,0.0100098-0.0630035,0.0310059c-0.0110016,0.0209961-0.0210037,0.0420074-0.026001,0.0659943
					h-0.0810013v-0.7479858h0.0810013c0.0049973,0.019989,0.0149994,0.0410004,0.026001,0.0609894
					c0.0080032,0.0209961,0.0299988,0.0310059,0.0630035,0.0310059c0.022995,0,0.0459976-0.0039978,0.0699997-0.0130005
					c0.0239944-0.0120087,0.0550003-0.0270081,0.0929947-0.0480042l1.802002-0.9210052
					C35.9064484,9.6591911,35.929451,9.6392021,35.9444504,9.6152c0.0149994-0.026001,0.0299988-0.0550079,0.0439987-0.0870056
					h0.0800018v0.7779999h-0.0800018c0-0.0110016-0.0029984-0.026001-0.012001-0.0439911
					c-0.0099945-0.0169983-0.0219955-0.026001-0.0419998-0.026001c-0.0279999,0-0.0670013,0.0110016-0.112999,0.0349884
					l-0.3290024,0.1690063v1.0800018l0.3150024,0.1589966c0.0620041,0.0299988,0.1070023,0.0440063,0.1330032,0.0440063
					c0.0319977,0,0.0479965-0.0279999,0.0479965-0.0850067h0.0800018v0.6300049H35.9884491z"/>
				<path class="st3" d="M36.0759506,9.4488945V8.7938957h-0.0800018c0,0.0660095-0.026001,0.1009979-0.0779953,0.1009979
					h-1.4710007L35.85495,7.5449028c0.0480042-0.0470123,0.0800018-0.0700073,0.1009979-0.0700073
					c0.0279999,0,0.0400009,0.0189972,0.0400009,0.0559998h0.0800018V6.8148918h-0.0800018
					c0,0.0550079-0.026001,0.0830078-0.0779953,0.0830078h-2.0110016c-0.052002,0-0.0800018-0.0279999-0.0800018-0.0830078
					h-0.0790024v0.6679993h0.0790024c0-0.0759888,0.0279999-0.1159973,0.0800018-0.1159973h1.4079971l-1.3199997,1.2710114
					c-0.0589981,0.0599976-0.1009979,0.0889893-0.1240005,0.0889893c-0.0279999,0-0.0439987-0.0130005-0.0439987-0.0359955
					h-0.0790024v0.7579956h0.0790024c0-0.0559998,0.0279999-0.0849915,0.0800018-0.0849915h2.0110016
					c0.0519943,0,0.0779953,0.0289917,0.0779953,0.0849915H36.0759506z"/>
				<path class="st3" d="M35.1785507,5.0518913l-0.8190002,0.3700104l0.822998,0.4160004V5.0498924L35.1785507,5.0518913z
					 M36.0055542,6.7178917c-0.0050049-0.0379944-0.0230026-0.0669861-0.0590057-0.0879974
					c-0.0299988-0.0240021-0.0680008-0.04599-0.1090012-0.0659943l-1.720993-0.8200073
					c-0.0390015-0.019989-0.0750046-0.0379944-0.1070023-0.052002c-0.0330048-0.0179901-0.0589981-0.0259857-0.0839996-0.0259857
					c-0.0299988,0-0.0510025,0.0089874-0.0620041,0.0309906c-0.010994,0.0200043-0.0199966,0.0410004-0.0270004,0.0650024
					h-0.0789948V5.0138969h0.0789948c0.0070038,0.0220032,0.0160065,0.0420074,0.0270004,0.0630035
					c0.0090027,0.0209961,0.0299988,0.0309906,0.0620041,0.0309906c0.0250015,0,0.0469971-0.0039978,0.0690002-0.0139923
					c0.0250015-0.0110016,0.0569992-0.0279999,0.0940018-0.0480042l1.8029938-0.92099
					c0.0310059-0.0140076,0.0540009-0.0330048,0.0709991-0.0580139c0.015007-0.0259857,0.0300064-0.0559998,0.0430069-0.088989
					h0.0799942v0.7799985h-0.0799942c0-0.0120087-0.0040054-0.026001-0.0110016-0.0449982
					c-0.0110016-0.0169983-0.0240021-0.026001-0.0410004-0.026001c-0.0309982,0-0.0690002,0.0119934-0.1160049,0.0359955
					l-0.3269958,0.1690063v1.0789948l0.3129959,0.1589966c0.064003,0.0299988,0.1060028,0.0440063,0.1340027,0.0440063
					c0.0329971,0,0.0480042-0.0270081,0.0480042-0.0839996h0.0799942v0.6279907H36.0055542z"/>
				<path class="st3" d="M25.637352,8.2940941c0.2600021,0,0.4729996,0.2170105,0.4729996,0.4850006
					c0,0.2680054-0.2129974,0.4850006-0.4729996,0.4850006s-0.4710007-0.2169952-0.4710007-0.4850006
					C25.1663513,8.5111046,25.3773499,8.2940941,25.637352,8.2940941"/>
				<path class="st3" d="M24.5180511,11.4082909c0.2600021,0,0.4700012,0.2170105,0.4700012,0.4860077
					c0,0.2680054-0.2099991,0.4850006-0.4700012,0.4850006s-0.4710007-0.2169952-0.4710007-0.4850006
					C24.0470505,11.6253014,24.258049,11.4082909,24.5180511,11.4082909"/>
				<path class="st3" d="M25.637352,12.0308037c0.2600021,0,0.4729996,0.2169952,0.4729996,0.4850006
					c0,0.2689972-0.2129974,0.4859924-0.4729996,0.4859924s-0.4710007-0.2169952-0.4710007-0.4859924
					C25.1663513,12.2477989,25.3773499,12.0308037,25.637352,12.0308037"/>
				<path class="st3" d="M24.7032471,12.7201042c0.2600021,0,0.4700012,0.2169952,0.4700012,0.4839935
					c0,0.2689972-0.2099991,0.4860077-0.4700012,0.4860077c-0.260994,0-0.470993-0.2170105-0.470993-0.4860077
					C24.232254,12.9370995,24.4422531,12.7201042,24.7032471,12.7201042"/>
				<path class="st3" d="M26.5650482,12.6946983c0.2590027,0,0.4700012,0.2180023,0.4700012,0.4850006
					c0,0.2680054-0.2109985,0.4850006-0.4700012,0.4850006c-0.260994,0-0.4720001-0.2169952-0.4720001-0.4850006
					C26.0930481,12.9127007,26.3040543,12.6946983,26.5650482,12.6946983"/>
				<path class="st3" d="M26.7562485,11.3975945c0.2600021,0,0.4710007,0.2180023,0.4710007,0.4860077
					c0,0.2679901-0.2109985,0.4850006-0.4710007,0.4850006c-0.260994,0-0.4710007-0.2170105-0.4710007-0.4850006
					C26.2852478,11.6155968,26.4952545,11.3975945,26.7562485,11.3975945"/>
				<path class="st3" d="M25.6177521,10.8153038c0.2610016,0,0.4729996,0.2169952,0.4729996,0.4839935
					c0,0.2689972-0.211998,0.4860077-0.4729996,0.4860077c-0.2600021,0-0.4700012-0.2170105-0.4700012-0.4860077
					C25.1477509,11.032299,25.3577499,10.8153038,25.6177521,10.8153038"/>
				<path class="st3" d="M24.4910507,8.8652c0.2600021,0,0.4710007,0.2180023,0.4710007,0.4850006
					c0,0.2679901-0.2109985,0.4859924-0.4710007,0.4859924s-0.4700012-0.2180023-0.4700012-0.4859924
					C24.0210495,9.0832024,24.2310486,8.8652,24.4910507,8.8652"/>
				<path class="st3" d="M25.637352,9.4873009c0.2600021,0,0.4729996,0.2180023,0.4729996,0.4859924
					c0,0.2669983-0.2129974,0.4850006-0.4729996,0.4850006s-0.4710007-0.2180023-0.4710007-0.4850006
					C25.1663513,9.7053032,25.3773499,9.4873009,25.637352,9.4873009"/>
				<path class="st3" d="M24.6961517,10.2383995c0.2610016,0,0.4700012,0.2180023,0.4700012,0.4850006
					c0,0.2680054-0.2089996,0.4850006-0.4700012,0.4850006c-0.2600021,0-0.4710007-0.2169952-0.4710007-0.4850006
					C24.2251511,10.4564018,24.4361496,10.2383995,24.6961517,10.2383995"/>
				<path class="st3" d="M26.5590515,10.2383995c0.2610016,0,0.4710007,0.2180023,0.4710007,0.4850006
					c0,0.2680054-0.2099991,0.4850006-0.4710007,0.4850006c-0.2600021,0-0.4700012-0.2169952-0.4700012-0.4850006
					C26.0890503,10.4564018,26.2990494,10.2383995,26.5590515,10.2383995"/>
				<path class="st3" d="M26.7885513,8.8652c0.2610016,0,0.4720001,0.2180023,0.4720001,0.4850006
					c0,0.2679901-0.2109985,0.4859924-0.4720001,0.4859924c-0.2580032,0-0.4690018-0.2180023-0.4690018-0.4859924
					C26.3195496,9.0832024,26.5305481,8.8652,26.7885513,8.8652"/>
				<path class="st3" d="M25.637352,13.4573021c0.2600021,0,0.4729996,0.2169952,0.4729996,0.4850006
					c0,0.2689972-0.2129974,0.4850006-0.4729996,0.4850006s-0.4710007-0.2160034-0.4710007-0.4850006
					C25.1663513,13.6742973,25.3773499,13.4573021,25.637352,13.4573021"/>
				<path class="st3" d="M25.637352,8.2940941c0.2600021,0,0.4729996,0.2170105,0.4729996,0.4850006
					c0,0.2680054-0.2129974,0.4850006-0.4729996,0.4850006s-0.4710007-0.2169952-0.4710007-0.4850006
					C25.1663513,8.5111046,25.3773499,8.2940941,25.637352,8.2940941"/>
				<path class="st3" d="M24.5180511,11.4082909c0.2600021,0,0.4700012,0.2170105,0.4700012,0.4860077
					c0,0.2680054-0.2099991,0.4850006-0.4700012,0.4850006s-0.4710007-0.2169952-0.4710007-0.4850006
					C24.0470505,11.6253014,24.258049,11.4082909,24.5180511,11.4082909"/>
				<path class="st3" d="M25.637352,12.0308037c0.2600021,0,0.4729996,0.2169952,0.4729996,0.4850006
					c0,0.2689972-0.2129974,0.4859924-0.4729996,0.4859924s-0.4710007-0.2169952-0.4710007-0.4859924
					C25.1663513,12.2477989,25.3773499,12.0308037,25.637352,12.0308037"/>
				<path class="st3" d="M24.7032471,12.7201042c0.2600021,0,0.4700012,0.2169952,0.4700012,0.4839935
					c0,0.2689972-0.2099991,0.4860077-0.4700012,0.4860077c-0.260994,0-0.470993-0.2170105-0.470993-0.4860077
					C24.232254,12.9370995,24.4422531,12.7201042,24.7032471,12.7201042"/>
				<path class="st3" d="M26.5650482,12.6946983c0.2590027,0,0.4700012,0.2180023,0.4700012,0.4850006
					c0,0.2680054-0.2109985,0.4850006-0.4700012,0.4850006c-0.260994,0-0.4720001-0.2169952-0.4720001-0.4850006
					C26.0930481,12.9127007,26.3040543,12.6946983,26.5650482,12.6946983"/>
				<path class="st3" d="M26.7562485,11.3975945c0.2600021,0,0.4710007,0.2180023,0.4710007,0.4860077
					c0,0.2679901-0.2109985,0.4850006-0.4710007,0.4850006c-0.260994,0-0.4710007-0.2170105-0.4710007-0.4850006
					C26.2852478,11.6155968,26.4952545,11.3975945,26.7562485,11.3975945"/>
				<path class="st3" d="M25.6177521,10.8153038c0.2610016,0,0.4729996,0.2169952,0.4729996,0.4839935
					c0,0.2689972-0.211998,0.4860077-0.4729996,0.4860077c-0.2600021,0-0.4700012-0.2170105-0.4700012-0.4860077
					C25.1477509,11.032299,25.3577499,10.8153038,25.6177521,10.8153038"/>
				<path class="st3" d="M24.4910507,8.8652c0.2600021,0,0.4710007,0.2180023,0.4710007,0.4850006
					c0,0.2679901-0.2109985,0.4859924-0.4710007,0.4859924s-0.4700012-0.2180023-0.4700012-0.4859924
					C24.0210495,9.0832024,24.2310486,8.8652,24.4910507,8.8652"/>
				<path class="st3" d="M25.637352,9.4873009c0.2600021,0,0.4729996,0.2180023,0.4729996,0.4859924
					c0,0.2669983-0.2129974,0.4850006-0.4729996,0.4850006s-0.4710007-0.2180023-0.4710007-0.4850006
					C25.1663513,9.7053032,25.3773499,9.4873009,25.637352,9.4873009"/>
				<path class="st3" d="M24.6961517,10.2383995c0.2610016,0,0.4700012,0.2180023,0.4700012,0.4850006
					c0,0.2680054-0.2089996,0.4850006-0.4700012,0.4850006c-0.2600021,0-0.4710007-0.2169952-0.4710007-0.4850006
					C24.2251511,10.4564018,24.4361496,10.2383995,24.6961517,10.2383995"/>
				<path class="st3" d="M26.5590515,10.2383995c0.2610016,0,0.4710007,0.2180023,0.4710007,0.4850006
					c0,0.2680054-0.2099991,0.4850006-0.4710007,0.4850006c-0.2600021,0-0.4700012-0.2169952-0.4700012-0.4850006
					C26.0890503,10.4564018,26.2990494,10.2383995,26.5590515,10.2383995"/>
				<path class="st3" d="M26.7885513,8.8652c0.2610016,0,0.4720001,0.2180023,0.4720001,0.4850006
					c0,0.2679901-0.2109985,0.4859924-0.4720001,0.4859924c-0.2580032,0-0.4690018-0.2180023-0.4690018-0.4859924
					C26.3195496,9.0832024,26.5305481,8.8652,26.7885513,8.8652"/>
				<path class="st3" d="M25.637352,13.4573021c0.2600021,0,0.4729996,0.2169952,0.4729996,0.4850006
					c0,0.2689972-0.2129974,0.4850006-0.4729996,0.4850006s-0.4710007-0.2160034-0.4710007-0.4850006
					C25.1663513,13.6742973,25.3773499,13.4573021,25.637352,13.4573021"/>
				<path class="st3" d="M24.7837524,7.5615959c-0.2040024-0.4559937-0.9440002-0.9619904-1.3690033-1.2489929
					c1.2190018-0.125,1.7050018,0.4219971,1.7050018,0.4219971c0.0360031-0.628006,0.473999-1.7120056,0.5069962-1.7940063V4.934597
					l0.0010071,0.0059967c0.034996,0.0820007,0.4720001,1.1660004,0.5089951,1.7940063c0,0,0.4850006-0.5469971,1.7040024-0.4219971
					c-0.4169998,0.2809906-1.137001,0.7749939-1.3570023,1.2249908c0.3380051,0.0429993,0.6559982,0.1150055,0.9540024,0.2190094
					c0.3819962,0.1349945,0.7190018,0.3320007,1.0110016,0.5889893c0.2949982,0.2540131,0.5199966,0.5140076,0.6719971,0.7810059
					c0.1529999,0.2689972,0.2669983,0.5619965,0.3440018,0.8820038c0.0800018,0.3199921,0.1199951,0.6719971,0.1210022,1.0579987
					c0,0.6529999-0.114006,1.2599945-0.3390045,1.8190002c-0.1669998,0.4169922-0.4109955,0.7870026-0.7360001,1.1109924
					c-0.3199997,0.3220062-0.6839981,0.5720062-1.0940018,0.7450104c-0.5629959,0.2330017-0.647995,0.2679901-1.3600006,0.3499908
					v0.8509979h0.2410049l0.1660004,0.5250092h-0.4070053v1.6999969c1.3110046-1.7830048,3.2870026-3.8070068,5.8860016-3.4320068
					c0,0-1.3089981,0.0750122-3.3320007,2.3079987c-1.0670013,1.5990143-2.5459976,1.6910095-2.5540009,1.9060059v3.378006
					l-0.8949966-0.8769989v-2.5149994c-0.0059967-0.2150116-1.4800034-0.2929993-2.5469971-1.8920135
					c-2.0210037-2.2329865-3.3320007-2.3079987-3.3320007-2.3079987c2.598999-0.375,4.5749969,1.6490021,5.885994,3.4320068
					v-1.6999969h-0.2229996l-0.1629944-0.5250092h0.385994v-0.8119965c0.5160065-0.1340027,2.7840042-0.8509979,2.8030014-3.8569946
					c0-0.8079987-0.1339951-3.20401-2.3450012-3.20401c-1.6509933,0-2.3299942,0.8430023-2.3379974,3.20401
					c-0.0159988,1.6389923,0.6060028,3.0930023,2.3710022,3.4230042c-1.125,0.3669891-1.8339996,0.1499939-2.1900024-0.0280151
					c-0.5579987-0.2839966-0.9990005-0.7019958-1.3180008-1.2569885c-0.3199997-0.5510101-0.4789963-1.2400055-0.4789963-2.0630035
					c0-0.6369934,0.0950012-1.1909943,0.2859955-1.6629944c0.1949997-0.4720001,0.4720001-0.8740082,0.8290024-1.2050018
					c0.3580017-0.32901,0.7470016-0.5670013,1.1669998-0.7140045C24.2197495,7.6766014,24.4957504,7.6076012,24.7837524,7.5615959"
					/>
				<path class="st3" d="M28.1307526,1.6757928v0.0390015c0.0400009,0,0.0589981,0.0140076,0.0589981,0.0380096v0.9769899
					c0,0.026001-0.0189972,0.0400085-0.0589981,0.0400085v0.0379944h0.7890015c0.2709961,0,0.4249954-0.1300049,0.4249954-0.3009949
					c0-0.1640015-0.1080017-0.2460022-0.2409973-0.2890015C29.21875,2.1768,29.3147507,2.1128047,29.3147507,1.9777948
					c0-0.2249908-0.2460022-0.302002-0.512001-0.302002H28.1307526z"/>
				<path class="st3" d="M26.237648,2.8072932V2.7692988c-0.0400009,0-0.0599976-0.0130005-0.0599976-0.0390015l0.0039978-0.7169952
					l0.4290009,0.7939911l0.4380035-0.7910004v0.7140045c0,0.026001-0.0190048,0.0390015-0.0579987,0.0390015v0.0379944h0.3359985
					V2.7692988c-0.0220032,0-0.0419998-0.0130005-0.0419998-0.0390015V1.7492944
					c0-0.026001,0.0199966-0.0339966,0.0419998-0.0339966V1.6753045h-0.3970032v0.0399933
					c0.0289993,0.0390015,0.0169983,0.0590057-0.0009995,0.095993L26.6186523,2.3643l-0.3089981-0.5590059
					c-0.0110016-0.026001-0.0270004-0.0509949-0.0270004-0.0659943l0.034996-0.0639954H25.91465v0.0399933
					c0.0230026,0,0.0439987,0.0079956,0.0439987,0.0339966v0.9810029c0,0.026001-0.0209961,0.0390015-0.0439987,0.0390015v0.0379944
					H26.237648z"/>
				<path class="st3" d="M24.6638489,1.6632959c-0.3149948,0-0.6949997,0.1849976-0.6949997,0.578003
					c0,0.3939972,0.3800049,0.5789948,0.6949997,0.5789948c0.3130035,0,0.6930008-0.1849976,0.6930008-0.5789948
					C25.3568497,1.8482934,24.9768524,1.6632959,24.6638489,1.6632959"/>
				<path class="st3" d="M23.561348,2.8554957v-0.302002h-0.0389938c0,0.0350037-0.0310059,0.0559998-0.0740051,0.0559998
					h-0.7139969V1.7524987c0-0.0240021,0.0189972-0.0379944,0.0599976-0.0379944V1.6755029H22.425354v0.0390015
					c0.0439987,0,0.0639954,0.0139923,0.0639954,0.0379944v0.9779969c0,0.026001-0.0199966,0.0390015-0.0639954,0.0390015v0.0379944
					h1.022995c0.0429993,0,0.0740051,0.003006,0.0740051,0.0480042H23.561348z"/>
				<path class="st3" d="M21.2252502,1.6632959c-0.3150024,0-0.6949997,0.1849976-0.6949997,0.578003
					c0,0.3939972,0.3799973,0.5789948,0.6949997,0.5789948c0.314003,0,0.6949997-0.1849976,0.6949997-0.5789948
					C21.9202499,1.8482934,21.5392532,1.6632959,21.2252502,1.6632959"/>
				<path class="st3" d="M19.6988525,2.3404963l-0.0340042,0.0209961c0.0110016,0.1230011-0.2789993,0.230011-0.4889984,0.230011
					c-0.2839966,0-0.5279999-0.1630096-0.5279999-0.4520111c0-0.2879945,0.2440033-0.451996,0.5279999-0.451996
					c0.1660004,0,0.4250031,0.0850067,0.439003,0.1609955l0.0309982,0.0510101l0.1940002-0.3050079l-0.0370026-0.0289917
					C19.7948532,1.5754968,19.7828522,1.5975,19.7678528,1.5975c-0.0110016,0-0.0750046-0.0319977-0.1790009-0.0630035
					c-0.102005-0.0289917-0.2450027-0.0630035-0.413002-0.0630035c-0.423996,0-0.8030014,0.2310028-0.8030014,0.6770021
					c0,0.4430084,0.3790054,0.673996,0.8030014,0.673996c0.3239975,0,0.6050034-0.1989899,0.6429977-0.1989899l0.0470047-0.0160065
					L19.6988525,2.3404963z"/>
				<path class="st3" d="M30.4746475,2.8072932V2.7692988c-0.0379944,0-0.0569992-0.0130005-0.0569992-0.0390015V1.7523004
					c0-0.0240021,0.0190048-0.0370026,0.0569992-0.0370026V1.6753045h-0.3569946v0.0399933
					c0.034996,0,0.0550003,0.0130005,0.0550003,0.0370026v0.9779969c0,0.026001-0.0200043,0.0390015-0.0550003,0.0390015v0.0379944
					H30.4746475z"/>
				<path class="st3" d="M31.5509491,2.8072932v-0.04599c-0.0250015,0-0.048996-0.0110016-0.048996-0.0270081
					c0-0.0149994,0.010994-0.0419922,0.026001-0.0749969l0.0909958-0.1790009h0.612999l0.0950012,0.1869965
					c0.0139999,0.0270081,0.0200043,0.0500031,0.0200043,0.0650024c0,0.0200043-0.0270004,0.029007-0.0410004,0.029007v0.04599
					h0.4419937v-0.04599c-0.0379944-0.0140076-0.0659943-0.029007-0.0820007-0.0650024l-0.522995-1.0209962
					c-0.0220032-0.0420074-0.0360031-0.0670013-0.0360031-0.0920105c0-0.0359955,0.0309982-0.0449982,0.052002-0.0509949V1.487301
					h-0.4229965v0.0449982c0.0259933,0.0059967,0.0559998,0.0180054,0.0559998,0.0509949
					c0,0.0250092-0.0230026,0.0640106-0.0460052,0.1070099l-0.4639969,0.9769899
					c-0.0230026,0.0480042-0.0439987,0.0900116-0.0879974,0.0940094v0.04599H31.5509491z"/>
				<polygon class="st1" points="31.6945496,2.2953913 32.1395493,2.2953913 31.9295502,1.828396 				"/>
				<path class="st3" d="M21.2252502,1.8603021c-0.2200012,0-0.4589996,0.1380005-0.4589996,0.3809968
					s0.2389984,0.3809967,0.4589996,0.3809967c0.2190018,0,0.4570007-0.1380005,0.4570007-0.3809967
					S21.444252,1.8603021,21.2252502,1.8603021"/>
				<path class="st1" d="M21.2252502,1.8603021c-0.2200012,0-0.4589996,0.1380005-0.4589996,0.3809968
					s0.2389984,0.3809967,0.4589996,0.3809967c0.2190018,0,0.4570007-0.1380005,0.4570007-0.3809967
					S21.444252,1.8603021,21.2252502,1.8603021"/>
				<path class="st3" d="M24.6638489,1.8603021c-0.2200012,0-0.4580002,0.1380005-0.4580002,0.3809968
					s0.237999,0.3809967,0.4580002,0.3809967c0.2190018,0,0.4570007-0.1380005,0.4570007-0.3809967
					S24.8828506,1.8603021,24.6638489,1.8603021"/>
				<path class="st1" d="M24.6638489,1.8603021c-0.2200012,0-0.4580002,0.1380005-0.4580002,0.3809968
					s0.237999,0.3809967,0.4580002,0.3809967c0.2190018,0,0.4570007-0.1380005,0.4570007-0.3809967
					S24.8828506,1.8603021,24.6638489,1.8603021"/>
				<path class="st3" d="M28.4347534,2.3043025v0.3049927h0.4119949c0.1760025,0,0.253006-0.0599976,0.253006-0.1519928
					c0-0.0930023-0.0770035-0.1529999-0.253006-0.1529999H28.4347534z M28.4347534,1.8603021v0.2579957h0.4119949
					c0.128006,0,0.2220001-0.0209961,0.2220001-0.1280061c0-0.1079865-0.0939941-0.1299896-0.2220001-0.1299896H28.4347534z"/>
				<path class="st1" d="M28.4347534,2.3041041v0.3049927h0.4119949c0.1760025,0,0.253006-0.0599976,0.253006-0.1519928
					c0-0.0920105-0.0770035-0.1529999-0.253006-0.1529999H28.4347534z"/>
				<path class="st1" d="M28.4347534,1.8603021v0.2579957h0.4119949c0.128006,0,0.2220001-0.0209961,0.2220001-0.1280061
					c0-0.1079865-0.0939941-0.1299896-0.2220001-0.1299896H28.4347534z"/>
			</g>
		</g>
	</g>
</g>
</svg>
