<svg width="1362" height="286" viewBox="0 0 1362 286" fill="none" xmlns="http://www.w3.org/2000/svg">
<g clip-path="url(#clip0_7633_72710)">
<path d="M539.786 22.7534C526.556 18.1173 511.665 15.7666 495.112 15.7666H393.941V280.872H427.686V166.145H495.176C512.24 166.145 527.387 163.794 540.552 159.158C553.782 154.522 564.327 146.621 572.252 135.521C580.177 124.42 584.14 109.663 584.14 91.1844C584.14 72.7054 580.049 57.9483 571.933 46.7173C563.752 35.4862 553.079 27.52 539.849 22.884L539.786 22.7534ZM536.462 125.204C527.706 133.301 513.774 137.349 494.792 137.349H427.686V44.5625H494.792C513.838 44.5625 527.706 48.6109 536.462 56.7077C545.218 64.8045 549.628 76.2967 549.628 91.1844C549.628 106.072 545.218 117.173 536.462 125.269V125.204Z" fill="black"/>
<path d="M730.11 199.06C730.11 212.185 728.321 223.35 724.742 232.557C721.163 241.764 715.986 248.816 709.147 253.779C702.309 258.741 694.128 261.157 684.478 261.157C670.162 261.157 659.745 256.717 653.353 247.902C646.898 239.087 643.703 225.701 643.703 207.745V98.3071H611.812V214.535C611.812 229.945 614.304 243.005 619.225 253.714C624.146 264.422 631.432 272.584 641.083 278.135C650.733 283.685 662.429 286.493 676.297 286.493C688.376 286.493 699.433 283.685 709.275 278.135C719.181 272.584 726.212 265.01 730.43 255.411V280.812H761.554V98.3071H730.046V199.06H730.11Z" fill="black"/>
<path d="M929 104.766C916.537 96.4082 901.902 92.2945 885.093 92.2945C872.503 92.2945 861.063 95.2328 850.773 100.979C840.548 106.79 832.303 114.104 826.104 122.919V15.7666H794.212V280.872H826.104V255.471C831.792 264.809 839.845 272.318 850.198 277.999C860.552 283.679 871.928 286.487 884.326 286.487C900.879 286.487 915.451 282.373 928.041 274.211C940.632 265.984 950.346 254.557 957.121 239.931C963.895 225.304 967.282 208.523 967.282 189.587C967.282 170.651 964.023 154.196 957.44 139.439C950.857 124.682 941.399 113.124 928.872 104.766H929ZM927.147 226.871C922.545 237.58 916.154 246.003 907.846 252.076C899.537 258.148 890.015 261.152 879.15 261.152C868.285 261.152 859.082 258.148 850.773 252.076C842.465 246.003 836.01 237.58 831.344 226.675C826.615 215.836 824.314 203.299 824.314 189.195C824.314 175.091 826.615 162.162 831.153 151.323C835.69 140.484 842.209 132.191 850.582 126.51C858.954 120.829 868.477 118.021 879.15 118.021C889.823 118.021 899.601 121.025 907.846 127.098C916.09 133.17 922.545 141.594 927.147 152.498C931.684 163.337 933.985 175.744 933.985 189.587C933.985 203.43 931.684 216.162 927.147 226.871Z" fill="black"/>
<path d="M995.531 15.7666V42.6689V253.969V280.872H1027.36V253.969V15.7666H1011.44H995.531Z" fill="black"/>
<path d="M1101.11 24.8354H1064.42V63.8176H1101.11V24.8354Z" fill="black"/>
<path d="M1067.04 98.3071V125.209V253.975V280.877H1098.93V253.975V98.3071H1082.96H1067.04Z" fill="black"/>
<path d="M1314.63 253.571C1308.94 253.571 1304.21 252.722 1300.38 250.894C1296.55 249.065 1293.61 246.127 1291.5 242.013C1289.39 237.834 1288.37 232.349 1288.37 225.559V125.197H1325.43V98.2951H1288.37V38.0915H1256.47V98.2951H1191.22V66.8874C1191.22 58.0723 1193.46 51.2814 1197.87 46.6454C1202.34 42.0093 1208.73 39.6586 1217.17 39.6586C1218.13 39.6586 1221.96 40.0504 1228.67 40.7686V13.0828C1226.69 12.1033 1224.01 11.2545 1220.68 10.6015C1217.36 9.94855 1213.97 9.62207 1210.52 9.62207C1196.21 9.62207 1184.06 14.5193 1174.22 24.1833C1164.31 33.9125 1159.39 47.3636 1159.39 64.5367V98.2298H1125.65V125.132H1159.39V280.8H1191.28V125.132H1256.54V228.889C1256.54 241.752 1258.84 252.2 1263.38 260.166C1267.91 268.132 1273.99 273.878 1281.53 277.404C1289.07 280.93 1297.63 282.693 1307.28 282.693C1310.99 282.693 1314.57 282.497 1318.02 282.106C1321.47 281.714 1324.79 281.191 1328.05 280.408V252.396C1322.88 253.179 1318.4 253.506 1314.7 253.506L1314.63 253.571Z" fill="black"/>
<path d="M95.6758 258.318L122.838 286.004L157.094 250.94L191.414 286.004L218.512 258.318L157.094 195.568L95.6758 258.318Z" fill="black"/>
<path d="M47.8662 209.406L74.9643 237.092L157.09 153.186L239.215 237.092L266.377 209.406L157.09 97.7485L47.8662 209.406Z" fill="black"/>
<path d="M0 160.491L27.0981 188.177L157.092 55.3634L287.087 188.177L314.185 160.491L157.092 -0.00830078L0 160.491Z" fill="black"/>
</g>
<defs>
<clipPath id="clip0_7633_72710">
<rect width="1362" height="286" fill="white"/>
</clipPath>
</defs>
</svg>
