<svg preserveAspectRatio="none" width="100%" height="100%" overflow="visible" style="display: block;" viewBox="0 0 44.0018 42.1424" fill="none" xmlns="http://www.w3.org/2000/svg">
<path id="Vector" d="M21.0527 2.58968C21.1404 2.41261 21.2758 2.26356 21.4436 2.15935C21.6115 2.05514 21.8051 1.99992 22.0027 1.99992C22.2003 1.99992 22.3939 2.05514 22.5618 2.15935C22.7296 2.26356 22.865 2.41261 22.9526 2.58968L27.5725 11.9473C27.8768 12.5632 28.326 13.0961 28.8816 13.5001C29.4372 13.9042 30.0826 14.1674 30.7623 14.2672L41.0939 15.7791C41.2897 15.8075 41.4736 15.8901 41.6248 16.0175C41.7761 16.145 41.8887 16.3122 41.9499 16.5003C42.0111 16.6884 42.0184 16.8899 41.971 17.0819C41.9237 17.274 41.8235 17.449 41.6819 17.5871L34.2102 24.8628C33.7174 25.3429 33.3488 25.9357 33.1359 26.5899C32.923 27.2442 32.8723 27.9404 32.9882 28.6186L34.7522 38.8982C34.7867 39.0938 34.7656 39.2953 34.6912 39.4795C34.6167 39.6637 34.492 39.8233 34.3313 39.9401C34.1705 40.0569 33.9801 40.1261 33.7819 40.1399C33.5837 40.1537 33.3856 40.1115 33.2102 40.0181L23.9746 35.1623C23.3661 34.8428 22.689 34.6758 22.0017 34.6758C21.3144 34.6758 20.6373 34.8428 20.0288 35.1623L10.7951 40.0181C10.6198 40.1109 10.422 40.1527 10.2241 40.1386C10.0262 40.1246 9.83623 40.0552 9.67579 39.9386C9.51535 39.8219 9.39087 39.6625 9.31652 39.4786C9.24217 39.2947 9.22093 39.0936 9.25521 38.8982L11.0171 28.6206C11.1335 27.9421 11.0831 27.2454 10.8702 26.5908C10.6573 25.9361 10.2884 25.343 9.79519 24.8628L2.3235 17.5891C2.1807 17.4511 2.0795 17.2759 2.03144 17.0832C1.98338 16.8906 1.99039 16.6883 2.05167 16.4995C2.11295 16.3106 2.22604 16.1428 2.37805 16.0151C2.53007 15.8874 2.71489 15.8049 2.91148 15.7771L13.241 14.2672C13.9215 14.1682 14.5678 13.9053 15.1241 13.5012C15.6805 13.0971 16.1303 12.5638 16.4349 11.9473L21.0527 2.58968Z" stroke="var(--stroke-0, #2B7FFF)" stroke-opacity="0.2" stroke-width="3.99983" stroke-linecap="round" stroke-linejoin="round"/>
</svg>
